<?xml version="1.0" encoding="utf-8" standalone="yes"?>
<!DOCTYPE svg PUBLIC "-//W3C//DTD SVG 1.1//EN" "http://www.w3.org/Graphics/SVG/1.1/DTD/svg11.dtd">
<svg style="fill:none;stroke:none;fill-rule:evenodd;clip-rule:evenodd;stroke-linecap:round;stroke-linejoin:round;stroke-miterlimit:1.5;" version="1.1" xmlns="http://www.w3.org/2000/svg" xmlns:xlink="http://www.w3.org/1999/xlink" width="756" height="916" viewBox="0 0 756 916"><style class="text-font-style fontImports" data-font-family="Roboto">@import url(https://fonts.googleapis.com/css2?family=Roboto:wght@400;700&amp;amp;display=block);</style><g id="items" style="isolation: isolate"><g id="blend" style="mix-blend-mode: normal"><g id="g-root-cp_3_g-3_zjfg37puv4lh-fill" data-item-order="-322840" transform="translate(33, 275.8440246582031)"><g id="cp_3_g-3_zjfg37puv4lh-fill-merged" stroke="none" fill="#95bdff"><g><path d="M374.411 101.578C412.289 88.66 439 51.986 439 10 H203.012C96.477 10 10 96.738 10 202.5C10 308.263 96.477 394 203.012 394C204.596 394 205.925 394.038 207.5 394C129.496 391.844 67 328.46 67 250.5C67 171.178 131.952 106.75 211.854 106.75 H333.014C333.014 106.75 360.743 106.75 374.411 101.578"></path></g></g></g><g id="g-root-cp_2_g-2_qnsfubpuv5e6-fill" data-item-order="-322836" transform="translate(90, 371.8440246582031)"><g id="cp_2_g-2_qnsfubpuv5e6-fill-merged" stroke="none" fill="#4e8ff7"><g><path d="M153.913 298C74.432 298 10 233.529 10 154C10 79.33 66.799 17.934 139.524 10.711C139.524 10.711 197.071 10.711 250.058 10.711C303.045 10.711 346 10 346 10C346 45.224 327.041 76.017 298.776 92.72C275.642 106 263.25 106 250.058 106 H153.913C100.926 106 57.971 148.981 57.971 202C57.971 255.019 100.926 298 153.913 298 M153.913 298C157.562 298 161.163 297.796 164.706 297.399L153.913 298"></path></g></g></g><g id="g-root-cp_1_g-1_m8leszpuv30n-fill" data-item-order="-322830" transform="translate(138, 467.8440246582031)"><g id="cp_1_g-1_m8leszpuv30n-fill-merged" stroke="none" fill="#4f82d5"><g><path d="M10 106C10 159.019 52.981 202 106 202C159.019 202 202 159.019 202 106C202 52.981 159.019 10 106 10C52.981 10 10 52.981 10 106"></path></g></g></g><g id="g-root-tx_excelenc_1qapsfnpuv40d-fill" data-item-order="0" transform="translate(302, 311.8440246582031)"><g id="tx_excelenc_1qapsfnpuv40d-fill-merged" stroke="none" fill="#ffffff"><g><text style="font: bold 20px Roboto, sans-serif; white-space: pre;" font-weight="bold" font-size="20px" font-family="Roboto, sans-serif"><tspan x="19.8" y="33.5" dominant-baseline="ideographic">Excelencia</tspan></text></g></g></g><g id="g-root-tx_elocuenc_qrjaczpuv3es-fill" data-item-order="0" transform="translate(266, 407.8440246582031)"><g id="tx_elocuenc_qrjaczpuv3es-fill-merged" stroke="none" fill="#ffffff"><g><text style="font: bold 20px Roboto, sans-serif; white-space: pre;" font-weight="bold" font-size="20px" font-family="Roboto, sans-serif"><tspan x="18.09" y="33.5" dominant-baseline="ideographic">Elocuencia</tspan></text></g></g></g><g id="g-root-tx_propsito_m9ucz7puv56q-fill" data-item-order="0" transform="translate(174, 539.8438720703125)"><g id="tx_propsito_m9ucz7puv56q-fill-merged" stroke="none" fill="#ffffff"><g><text style="font: bold 20px Roboto, sans-serif; white-space: pre;" font-weight="bold" font-size="20px" font-family="Roboto, sans-serif"><tspan x="15.82" y="33.5" dominant-baseline="ideographic">Propósito o </tspan><tspan x="31.81" y="57.5" dominant-baseline="ideographic">Función</tspan></text></g></g></g><g id="g-root-cp_3_g-3_zjfg37puv4lh-stroke" data-item-order="-322840" transform="translate(33, 275.8440246582031)"><g id="cp_3_g-3_zjfg37puv4lh-stroke" fill="none" stroke-linecap="round" stroke-linejoin="round" stroke-miterlimit="4" stroke="#ffffff" stroke-width="1"><g><path d="M 374.4112 101.5782C 412.2891 88.6605 439 51.9861 439 10L 203.0123 10C 96.4769 10 10 96.7375 10 202.5C 10 308.2625 96.4769 394 203.0123 394C 204.5963 394 205.9252 394.0377 207.5 394C 129.4957 391.8436 67 328.4597 67 250.5C 67 171.1781 131.952 106.75 211.8536 106.75L 333.0139 106.75C 333.0139 106.75 360.7432 106.75 374.4112 101.5782Z"></path></g></g></g><g id="g-root-cp_2_g-2_qnsfubpuv5e6-stroke" data-item-order="-322836" transform="translate(90, 371.8440246582031)"><g id="cp_2_g-2_qnsfubpuv5e6-stroke" fill="none" stroke-linecap="round" stroke-linejoin="round" stroke-miterlimit="4" stroke="#ffffff" stroke-width="1"><g><path d="M 153.913 298C 74.4321 298 10 233.529 10 154C 10 79.3301 66.7992 17.9344 139.5243 10.7107C 139.5243 10.7107 197.0706 10.7108 250.058 10.7108C 303.0453 10.7108 346 10 346 10C 346 45.224 327.0408 76.0172 298.7763 92.7198C 275.6425 106 263.25 106 250.058 106L 153.913 106C 100.9257 106 57.971 148.9807 57.971 202C 57.971 255.0194 100.9257 298 153.913 298ZM 153.913 298C 157.562 298 161.1634 297.7962 164.7065 297.3993M 153.913 298C 157.7293 298 161.5109 297.8514 165.2523 297.5596"></path></g></g></g><g id="g-root-cp_1_g-1_m8leszpuv30n-stroke" data-item-order="-322830" transform="translate(138, 467.8440246582031)"><g id="cp_1_g-1_m8leszpuv30n-stroke" fill="none" stroke-linecap="round" stroke-linejoin="round" stroke-miterlimit="4" stroke="#ffffff" stroke-width="1"><g><path d="M 10 106C 10.000003 159.019339 52.980667 202.000003 106.000003 202.000003C 159.019339 202.000003 202.000003 159.019339 202.000003 106.000003C 202.000003 52.980667 159.019339 10.000003 106.000003 10.000003C 52.980667 10.000003 10.000003 52.980667 10.000003 106.000003"></path></g></g></g><g id="g-root-tx_excelenc_1qapsfnpuv40d-stroke" data-item-order="0" transform="translate(302, 311.8440246582031)"></g><g id="g-root-tx_elocuenc_qrjaczpuv3es-stroke" data-item-order="0" transform="translate(266, 407.8440246582031)"></g><g id="g-root-tx_propsito_m9ucz7puv56q-stroke" data-item-order="0" transform="translate(174, 539.8438720703125)"></g></g></g></svg>