<?xml version="1.0" encoding="UTF-8"?>
<svg version="1.1" xmlns="http://www.w3.org/2000/svg" width="1024" height="1024">
<path d="M0 0 C5.87674576 6.36989926 8.53104536 13.30622429 8.8125 21.9375 C8.30506288 33.5704959 3.77618658 41.03896006 -4.75 48.875 C-5.61106857 49.29896561 -6.47213715 49.72293121 -7.35929871 50.15974426 C-9.98783945 51.65010325 -9.98783945 51.65010325 -10.35127258 54.39970398 C-10.34016953 55.40564102 -10.32906647 56.41157806 -10.31762695 57.44799805 C-10.3172493 58.58895432 -10.31687164 59.72991058 -10.31648254 60.90544128 C-10.29067612 62.13676285 -10.26486969 63.36808441 -10.23828125 64.63671875 C-10.23120651 65.89764847 -10.22413177 67.15857819 -10.21684265 68.4577179 C-10.19357389 71.80721392 -10.14867107 75.15500669 -10.09332275 78.50402832 C-10.04213656 81.92245505 -10.0190561 85.34106309 -9.99414062 88.75976562 C-9.94319837 95.4658036 -9.845348 102.16885703 -9.75 108.875 C-1.5 108.875 6.75 108.875 15.25 108.875 C15.58 108.215 15.91 107.555 16.25 106.875 C17.24 106.875 18.23 106.875 19.25 106.875 C29.35471758 126.80968453 38.89341554 147.02449995 48.53125 167.1875 C49.20414063 168.59515625 49.20414063 168.59515625 49.890625 170.03125 C50.79436401 171.92183046 51.69801037 173.81245522 52.6015625 175.703125 C57.5501498 186.05274187 62.5192293 196.39158899 67.5546875 206.69921875 C76.10516986 224.20594308 84.5277903 241.75120065 92.67138672 259.45166016 C95.44964566 265.47652048 98.25577631 271.48836419 101.0625 277.5 C101.35115936 278.11847809 101.63981873 278.73695618 101.93722534 279.37417603 C110.76708015 298.2899502 119.66122599 317.17568889 128.5859375 336.046875 C136.67265917 353.14759395 144.70589028 370.27041958 152.65527344 387.43554688 C165.0996572 414.27517921 177.58732763 441.10200878 190.4375 467.75 C196.33003415 479.96987867 202.05322865 492.26633629 207.72949219 504.58789062 C208.80044977 506.90313996 209.87849982 509.21397078 210.96582031 511.52148438 C211.51592773 512.69517578 212.06603516 513.86886719 212.6328125 515.078125 C213.13441895 516.14192383 213.63602539 517.20572266 214.15283203 518.30175781 C215.25 520.875 215.25 520.875 215.25 522.875 C216.24 522.875 217.23 522.875 218.25 522.875 C217.92 523.865 217.59 524.855 217.25 525.875 C218.00187857 527.90933039 218.00187857 527.90933039 219.1875 529.9375 C221.25 533.69194915 221.25 533.69194915 221.25 535.875 C221.91 536.205 222.57 536.535 223.25 536.875 C223.94113452 538.86667706 224.60149509 540.86903743 225.25 542.875 C226.47084176 545.69578343 227.80993136 548.45810213 229.14453125 551.2265625 C229.52847046 552.03057999 229.91240967 552.83459747 230.3079834 553.66297913 C231.13033769 555.38445028 231.95420438 557.10519964 232.77944946 558.82528687 C234.94371118 563.33701814 237.09641829 567.85425739 239.25 572.37109375 C239.67904129 573.27030045 240.10808258 574.16950714 240.55012512 575.09596252 C245.73318267 585.96859457 250.81332184 596.88874541 255.84228516 607.83349609 C256.86111348 610.0347731 257.8938314 612.22963917 258.93505859 614.42041016 C259.48629395 615.58749512 260.0375293 616.75458008 260.60546875 617.95703125 C261.11102295 619.01768799 261.61657715 620.07834473 262.13745117 621.17114258 C263.25 623.875 263.25 623.875 263.25 626.875 C249.82654663 626.89834422 236.40309823 626.91602618 222.97962856 626.92681217 C216.74414278 626.93199329 210.50867106 626.93900237 204.27319336 626.95043945 C198.23661731 626.96144028 192.20005463 626.96731259 186.16346931 626.96987724 C183.87983045 626.97170094 181.59619217 626.97526063 179.31255913 626.98073006 C164.26369705 627.01528361 149.27870492 626.66921613 134.25 625.875 C133.67857874 624.58196168 133.10717631 623.28891504 132.53578186 621.99586487 C132.05847925 620.91576818 132.05847925 620.91576818 131.57153416 619.81385136 C130.91863827 618.33577038 130.2665836 616.85731775 129.61499023 615.37866211 C124.27922098 603.34066317 118.59766279 591.47043116 112.82546997 579.63723755 C107.81135013 569.35157043 102.88741514 559.04533049 98.27026367 548.57373047 C95.59786451 542.54327199 92.70006011 536.64761512 89.63500977 530.80688477 C88.15786273 527.94697346 87.25 526.14524538 87.25 522.875 C86.59 522.875 85.93 522.875 85.25 522.875 C85.05986328 522.368479 84.86972656 521.86195801 84.67382812 521.34008789 C81.11405675 512.147582 76.88934883 503.25366851 72.75 494.3125 C71.60475827 491.83340272 70.46024209 489.35397277 69.31628418 486.87428284 C68.60924875 485.34224494 67.90138643 483.81058825 67.19250488 482.27940369 C64.82849511 477.1645508 62.53912428 472.02552964 60.25 466.875 C3.49 466.545 -53.27 466.215 -111.75 465.875 C-113.235 470.33 -113.235 470.33 -114.75 474.875 C-115.90880449 477.56685967 -117.08969816 480.21594552 -118.33984375 482.86328125 C-118.68057419 483.59623917 -119.02130463 484.32919708 -119.37236023 485.08436584 C-120.09861074 486.64660934 -120.82676626 488.20796847 -121.55670166 489.76849365 C-127.88854374 503.31358444 -134.0017181 516.92586296 -139.83349609 530.69311523 C-143.75714668 539.94506952 -147.74612584 549.17391168 -152.43359375 558.0703125 C-153.96244303 560.81124723 -153.96244303 560.81124723 -153.75 563.875 C-154.41 563.875 -155.07 563.875 -155.75 563.875 C-155.98332031 564.65230469 -156.21664062 565.42960938 -156.45703125 566.23046875 C-158.16544374 571.04602419 -160.28538766 575.54549985 -162.4375 580.1875 C-169.60196606 595.72233236 -176.67093828 611.30106423 -183.75 626.875 C-226.65 626.875 -269.55 626.875 -313.75 626.875 C-312.62595539 620.13073236 -312.62595539 620.13073236 -310.9375 616.7109375 C-310.40769531 615.61652344 -310.40769531 615.61652344 -309.8671875 614.5 C-309.49851562 613.7575 -309.12984375 613.015 -308.75 612.25 C-308.0175229 610.75943472 -307.28823926 609.26729495 -306.5625 607.7734375 C-306.07716797 606.79383057 -306.07716797 606.79383057 -305.58203125 605.79443359 C-304.73508117 603.84058338 -304.20721239 601.95150626 -303.75 599.875 C-303.09 599.875 -302.43 599.875 -301.75 599.875 C-301.3619519 598.62130615 -301.3619519 598.62130615 -300.96606445 597.34228516 C-299.64223553 593.56773821 -298.02027289 589.99905416 -296.29296875 586.3984375 C-295.78425987 585.32687912 -295.78425987 585.32687912 -295.26527405 584.2336731 C-294.53748505 582.70139112 -293.8081868 581.16982525 -293.07751465 579.63891602 C-291.1370058 575.57255365 -289.20802443 571.50072282 -287.27734375 567.4296875 C-286.88946686 566.61260315 -286.50158997 565.7955188 -286.10195923 564.95367432 C-282.69753693 557.77778386 -279.33799194 550.58202805 -276 543.375 C-275.48373047 542.26141113 -274.96746094 541.14782227 -274.43554688 540.00048828 C-272.30759804 535.40750963 -270.18249521 530.81322676 -268.06201172 526.21679688 C-256.73229958 501.6584292 -256.73229958 501.6584292 -251.71240234 491.76367188 C-245.25004475 479.00910829 -238.75676966 466.1568798 -233.65234375 452.7890625 C-232.75 450.875 -232.75 450.875 -230.75 449.875 C-230.01224132 448.11029395 -230.01224132 448.11029395 -229.4296875 445.9609375 C-227.72547052 440.55320256 -225.36434394 435.58457788 -222.875 430.5 C-221.98087267 428.65408061 -221.08763459 426.80773022 -220.1953125 424.9609375 C-219.55964355 423.64754395 -219.55964355 423.64754395 -218.91113281 422.30761719 C-217.07442625 418.45964743 -215.3641185 414.56095355 -213.6875 410.640625 C-212.75 408.875 -212.75 408.875 -210.75 407.875 C-210.0914823 405.86478808 -209.43917251 403.85239732 -208.8125 401.83203125 C-207.21483401 397.38558583 -205.14971779 393.17616171 -203.0871582 388.92919922 C-201.34065126 385.55649772 -201.34065126 385.55649772 -200.75 381.875 C-200.09 381.875 -199.43 381.875 -198.75 381.875 C-198.36062256 380.61973511 -198.36062256 380.61973511 -197.96337891 379.33911133 C-196.64891547 375.58641078 -195.04525109 372.03242926 -193.3359375 368.44921875 C-193.00260406 367.74336136 -192.66927063 367.03750397 -192.32583618 366.31025696 C-191.26207158 364.05948314 -190.19366228 361.81095188 -189.125 359.5625 C-188.43067346 358.09585274 -187.73666062 356.62905693 -187.04296875 355.16210938 C-186.69945374 354.43613556 -186.35593872 353.71016174 -186.00201416 352.96218872 C-185.30852087 351.49638777 -184.61528313 350.03046588 -183.92230225 348.56442261 C-182.10883363 344.73129619 -180.28409014 340.90411975 -178.44238281 337.08447266 C-177.70377315 335.54199357 -176.96516629 333.99951315 -176.2265625 332.45703125 C-175.87741791 331.73980392 -175.52827332 331.0225766 -175.16854858 330.28361511 C-173.24816234 326.26187467 -173.24816234 326.26187467 -172.75 321.875 C-172.09 321.875 -171.43 321.875 -170.75 321.875 C-170.47454346 321.00117676 -170.19908691 320.12735352 -169.9152832 319.22705078 C-168.82587799 316.09327045 -167.56409972 313.21866247 -166.10546875 310.2421875 C-165.59306641 309.18773437 -165.08066406 308.13328125 -164.55273438 307.046875 C-164.01970703 305.95890625 -163.48667969 304.8709375 -162.9375 303.75 C-159.35582776 296.43612789 -155.96562349 289.10952774 -152.88208008 281.57128906 C-151.40719581 278.05853903 -149.74223585 274.70060911 -148 271.3125 C-145.62694904 266.69724445 -145.62694904 266.69724445 -143.75 261.875 C-142.55757921 259.46980001 -141.34799443 257.0770298 -140.125 254.6875 C-137.19682336 248.89913534 -134.41681526 243.06639576 -131.8125 237.125 C-131.51843262 236.45831299 -131.22436523 235.79162598 -130.92138672 235.10473633 C-129.60603977 232.06821073 -128.39897359 229.12808283 -127.75 225.875 C-127.09 225.875 -126.43 225.875 -125.75 225.875 C-125.481875 225.00875 -125.21375 224.1425 -124.9375 223.25 C-123.77827052 219.95534779 -122.30954105 216.99408211 -120.75 213.875 C-120.59885742 213.24078125 -120.44771484 212.6065625 -120.29199219 211.953125 C-119.69066913 209.64751155 -118.78268871 207.83944652 -117.640625 205.75 C-117.2182959 204.96729736 -116.7959668 204.18459473 -116.36083984 203.37817383 C-115.9117627 202.55212646 -115.46268555 201.7260791 -115 200.875 C-111.65549229 194.63242872 -108.61118142 188.43123728 -105.99609375 181.84375 C-104.54190833 178.37923301 -102.88657034 175.03605443 -101.1875 171.6875 C-97.46106497 164.32056063 -93.79978757 156.92364435 -90.1875 149.5 C-89.63827881 148.38729736 -89.08905762 147.27459473 -88.52319336 146.12817383 C-87.76727905 144.56812622 -87.76727905 144.56812622 -86.99609375 142.9765625 C-86.53904053 142.04150879 -86.0819873 141.10645508 -85.61108398 140.14306641 C-85.32692627 139.39460449 -85.04276855 138.64614258 -84.75 137.875 C-85.08 137.215 -85.41 136.555 -85.75 135.875 C-84.76 135.875 -83.77 135.875 -82.75 135.875 C-82.62616943 135.14885498 -82.50233887 134.42270996 -82.37475586 133.67456055 C-81.76185343 130.92811578 -80.90522096 128.64375169 -79.75390625 126.08203125 C-79.36009766 125.20482422 -78.96628906 124.32761719 -78.56054688 123.42382812 C-78.14869141 122.52083984 -77.73683594 121.61785156 -77.3125 120.6875 C-76.90451172 119.77291016 -76.49652344 118.85832031 -76.07617188 117.91601562 C-73.00717023 111.13217023 -73.00717023 111.13217023 -70.75 108.875 C-68.82641602 108.64794922 -68.82641602 108.64794922 -66.50390625 108.6796875 C-65.66666016 108.68613281 -64.82941406 108.69257813 -63.96679688 108.69921875 C-63.09087891 108.71597656 -62.21496094 108.73273438 -61.3125 108.75 C-60.00442383 108.76353516 -60.00442383 108.76353516 -58.66992188 108.77734375 C-57.04755256 108.79480199 -55.42521868 108.81635777 -53.80297852 108.84326172 C-52.11882036 108.86929817 -50.4343594 108.875 -48.75 108.875 C-46.11 108.875 -43.47 108.875 -40.75 108.875 C-40.75 89.735 -40.75 70.595 -40.75 50.875 C-42.07 50.215 -43.39 49.555 -44.75 48.875 C-51.38535833 43.97172872 -55.28095425 37.73559467 -57.75 29.875 C-59.13529254 20.3857461 -57.62956394 13.19111804 -53.125 4.875 C-46.60834849 -3.3565598 -39.85288493 -8.2616733 -29.5 -9.9375 C-18.18254081 -10.85460445 -8.39762327 -7.53077184 0 0 Z M-64.75 294.875 C-60.75 295.875 -60.75 295.875 -60.75 295.875 Z M-122.0625 300.3125 C-128.35380287 305.86660858 -131.64534467 312.61922766 -132.29516602 320.92504883 C-132.51464613 325.7893742 -132.50327673 330.6441938 -132.42236328 335.51196289 C-132.37493038 338.56698412 -132.38130166 341.61852859 -132.39453125 344.67382812 C-132.38338146 346.64064555 -132.36916404 348.60744848 -132.3515625 350.57421875 C-132.35338531 351.4744426 -132.35520813 352.37466644 -132.35708618 353.3021698 C-132.15889443 362.25864688 -129.13562832 369.48937168 -122.75 375.875 C-112.83549447 384.3731476 -98.54938952 383.17154153 -86.23608398 383.13378906 C-84.7265608 383.13650656 -83.21703893 383.14007171 -81.70751953 383.14440918 C-77.64766201 383.15344455 -73.58790735 383.15002611 -69.52804828 383.14365101 C-65.25625019 383.13854567 -60.98446022 383.14329486 -56.71266174 383.14642334 C-49.54353269 383.15004948 -42.37444502 383.14529912 -35.20532227 383.13574219 C-26.94429061 383.12485609 -18.68335769 383.12838981 -10.42232841 383.139395 C-3.29836229 383.14850158 3.8255743 383.14973685 10.94954437 383.14451766 C15.19078591 383.14141697 19.4319812 383.14093595 23.67321968 383.14759064 C27.66162563 383.15341294 31.64990554 383.1492789 35.63829803 383.13780212 C37.09263081 383.13518162 38.5469744 383.13587532 40.00130272 383.14032745 C58.98546449 383.30520914 58.98546449 383.30520914 74.96484375 374.2734375 C81.4489537 367.32957403 82.71067999 359.93422451 82.6484375 350.75 C82.65130768 349.80366699 82.65417786 348.85733398 82.65713501 347.88232422 C82.65916595 345.89224647 82.65370438 343.90214832 82.64111328 341.91210938 C82.62504592 338.88365611 82.6409953 335.85653726 82.66015625 332.828125 C82.65817365 330.88541375 82.65432962 328.94270333 82.6484375 327 C82.65754654 325.65591064 82.65754654 325.65591064 82.6668396 324.28466797 C82.57925953 316.37093628 80.90053641 310.02878932 75.375 304.0625 C74.71757813 303.33417969 74.06015625 302.60585938 73.3828125 301.85546875 C68.86594902 297.66123837 64.9122564 295.875 58.8125 295.875 C55.75132979 295.875 53.20721743 295.5919012 50.25 294.875 C50.25 295.535 50.25 296.195 50.25 296.875 C49.26 296.38 49.26 296.38 48.25 295.875 C47.321875 296.04 46.39375 296.205 45.4375 296.375 C42.25 296.875 42.25 296.875 39.9140625 296.34765625 C36.79876423 295.79494204 34.52671107 296.17977002 31.4375 296.8125 C30.46167969 297.00714844 29.48585938 297.20179688 28.48046875 297.40234375 C27.37638672 297.63630859 27.37638672 297.63630859 26.25 297.875 C26.58 296.885 26.91 295.895 27.25 294.875 C26.198125 295.225625 25.14625 295.57625 24.0625 295.9375 C19.28014833 297.11348812 16.79884948 296.39128316 12.25 294.875 C11.92 295.535 11.59 296.195 11.25 296.875 C10.26 296.215 9.27 295.555 8.25 294.875 C6.93 294.875 5.61 294.875 4.25 294.875 C3.92 295.535 3.59 296.195 3.25 296.875 C2.5075 296.71 1.765 296.545 1 296.375 C-2.20408946 295.79243828 -4.76484286 295.38242143 -7.75 296.875 C-8.74 296.545 -9.73 296.215 -10.75 295.875 C-13.38804589 296.26897335 -13.38804589 296.26897335 -15.75 296.875 C-16.245 295.885 -16.245 295.885 -16.75 294.875 C-17.74 294.875 -18.73 294.875 -19.75 294.875 C-20.41 295.535 -21.07 296.195 -21.75 296.875 C-24.49485593 297.02007695 -27.13480543 297.06152423 -29.875 297 C-30.62910156 296.99097656 -31.38320313 296.98195313 -32.16015625 296.97265625 C-34.02357254 296.9490687 -35.88682593 296.91319719 -37.75 296.875 C-37.42 296.215 -37.09 295.555 -36.75 294.875 C-39.06 294.875 -41.37 294.875 -43.75 294.875 C-44.08 295.535 -44.41 296.195 -44.75 296.875 C-45.513125 296.71 -46.27625 296.545 -47.0625 296.375 C-50.90760484 295.65963166 -53.96800993 296.05727242 -57.75 296.875 C-57.75 296.215 -57.75 295.555 -57.75 294.875 C-58.41 294.875 -59.07 294.875 -59.75 294.875 C-60.41 295.535 -61.07 296.195 -61.75 296.875 C-63.07 296.875 -64.39 296.875 -65.75 296.875 C-65.75 297.535 -65.75 298.195 -65.75 298.875 C-66.41 298.875 -67.07 298.875 -67.75 298.875 C-68.245 297.885 -68.245 297.885 -68.75 296.875 C-71.06 296.875 -73.37 296.875 -75.75 296.875 C-74.1 296.545 -72.45 296.215 -70.75 295.875 C-70.75 295.545 -70.75 295.215 -70.75 294.875 C-75.04 294.875 -79.33 294.875 -83.75 294.875 C-83.75 295.205 -83.75 295.535 -83.75 295.875 C-93.90704894 297.15695763 -93.90704894 297.15695763 -98.75 295.875 C-100.07 295.875 -101.39 295.875 -102.75 295.875 C-103.38421875 295.68808594 -104.0184375 295.50117188 -104.671875 295.30859375 C-110.40671084 294.11203965 -117.31116156 297.21817939 -122.0625 300.3125 Z M-48.75 294.875 C-44.75 295.875 -44.75 295.875 -44.75 295.875 Z M-35.75 294.875 C-35.75 295.205 -35.75 295.535 -35.75 295.875 C-32.78 295.875 -29.81 295.875 -26.75 295.875 C-26.75 295.545 -26.75 295.215 -26.75 294.875 C-29.72 294.875 -32.69 294.875 -35.75 294.875 Z M-25.75 294.875 C-21.75 295.875 -21.75 295.875 -21.75 295.875 Z M15.25 294.875 C19.25 295.875 19.25 295.875 19.25 295.875 Z M28.25 294.875 C29.25 296.875 29.25 296.875 29.25 296.875 Z M30.25 294.875 C34.25 295.875 34.25 295.875 34.25 295.875 Z " fill="#005BFC" transform="translate(536.75,181.125)"/>
<path d="M0 0 C1.43809329 -0.00842402 2.87617555 -0.01895393 4.3142395 -0.03141785 C8.20067298 -0.05836992 12.08646202 -0.05379177 15.97294736 -0.04171729 C19.2235406 -0.03456532 22.47401621 -0.04309895 25.72460026 -0.05162269 C33.39414554 -0.07154343 41.06337886 -0.06603995 48.73291016 -0.04394531 C56.63463352 -0.02156805 64.53554046 -0.03920321 72.43718678 -0.0769946 C79.23406735 -0.10825549 86.03069555 -0.11613692 92.82763904 -0.10504085 C96.88171848 -0.09856383 100.93532667 -0.10050786 104.98935127 -0.12436485 C108.80074882 -0.14565455 112.61099586 -0.13759228 116.42232132 -0.10727119 C117.81746685 -0.10095728 119.21270222 -0.10477232 120.60778236 -0.11968231 C132.43493817 -0.23580341 132.43493817 -0.23580341 136.99229431 3.47209167 C140.2073856 6.70466609 141.66736507 10.10329873 141.70874023 14.6628418 C140.93173434 19.42690824 139.64067626 22.73090577 136.20874023 26.1628418 C132.32170817 28.49506104 129.41740964 28.79176938 124.96624756 28.81001282 C123.1703997 28.82074577 123.1703997 28.82074577 121.33827209 28.83169556 C120.02289963 28.83438446 118.70752716 28.83707336 117.35229492 28.83984375 C115.95435925 28.84610962 114.55642523 28.85275653 113.15849304 28.85975647 C108.56587888 28.88078528 103.97326443 28.89115801 99.38061523 28.90112305 C97.79862704 28.9051711 96.21663902 28.90928803 94.63465118 28.91347313 C87.20172756 28.93252252 79.76881385 28.94675386 72.3358705 28.9550851 C63.76059725 28.96485582 55.18558223 28.99117193 46.61039996 29.03158599 C39.97928486 29.06176354 33.34824371 29.07655554 26.71706128 29.07986611 C22.75798155 29.08221482 18.79917778 29.09115157 14.84017181 29.11632729 C11.11365367 29.13964184 7.38759251 29.14382795 3.66102028 29.1335659 C1.64774788 29.13283606 -0.36550149 29.15190365 -2.37867737 29.17163086 C-9.22627755 29.13228618 -13.76662305 28.86226596 -19.29125977 24.6628418 C-22.26016277 21.47071301 -23.23233629 18.34635408 -23.60375977 14.0378418 C-23.50063477 12.9240918 -23.39750977 11.8103418 -23.29125977 10.6628418 C-23.29125977 9.7965918 -23.29125977 8.9303418 -23.29125977 8.0378418 C-19.48841923 -0.99390447 -8.1814262 -0.05540765 0 0 Z " fill="#0055EE" transform="translate(452.291259765625,506.337158203125)"/>
<path d="M0 0 C337.92 0 675.84 0 1024 0 C1024 337.92 1024 675.84 1024 1024 C686.08 1024 348.16 1024 0 1024 C0 686.08 0 348.16 0 0 Z M1 1 C1 338.26 1 675.52 1 1023 C338.26 1023 675.52 1023 1023 1023 C1023 685.74 1023 348.48 1023 1 C685.74 1 348.48 1 1 1 Z " fill="#515153" transform="translate(0,0)"/>
<path d="M0 0 C0.33 0 0.66 0 1 0 C1.80202014 7.47587807 2.1375953 14.8394067 2.09765625 22.35546875 C2.09553383 23.89694328 2.09553383 23.89694328 2.09336853 25.46955872 C2.08783066 28.70890379 2.0752903 31.94817629 2.0625 35.1875 C2.05747695 37.4016917 2.05291546 39.6158845 2.04882812 41.83007812 C2.03873823 47.22010162 2.01915131 52.60997087 2 58 C10.25 58 18.5 58 27 58 C27.33 57.34 27.66 56.68 28 56 C28.99 56 29.98 56 31 56 C41.10471758 75.93468453 50.64341554 96.14949995 60.28125 116.3125 C60.72984375 117.2509375 61.1784375 118.189375 61.640625 119.15625 C62.54436401 121.04683046 63.44801037 122.93745522 64.3515625 124.828125 C69.3001498 135.17774187 74.2692293 145.51658899 79.3046875 155.82421875 C87.85516986 173.33094308 96.2777903 190.87620065 104.42138672 208.57666016 C107.19964566 214.60152048 110.00577631 220.61336419 112.8125 226.625 C113.10115936 227.24347809 113.38981873 227.86195618 113.68722534 228.49917603 C122.51708021 247.41495033 131.41124104 266.30068166 140.3359375 285.171875 C141.78656795 288.23953151 143.23710555 291.30723189 144.6875 294.375 C145.04307983 295.12707733 145.39865967 295.87915466 145.76501465 296.65402222 C151.10709862 307.95635429 156.41074751 319.27565047 161.6496582 330.6262207 C163.93257915 335.56979627 166.22946396 340.50259147 168.61328125 345.3984375 C169.00056396 346.19870361 169.38784668 346.99896973 169.78686523 347.82348633 C170.48489034 349.25978613 171.19076574 350.69231253 171.90649414 352.11987305 C174.11094014 356.66717957 174.11094014 356.66717957 173 360 C166.51486013 347.38238648 160.55770486 334.52729149 154.6116333 321.64956665 C151.48684386 314.88363738 148.33977584 308.12815934 145.1875 301.375 C144.89941467 300.75776062 144.61132935 300.14052124 144.31451416 299.50457764 C139.64194395 289.4957217 134.95180474 279.49515381 130.25 269.5 C129.92028198 268.79898163 129.59056396 268.09796326 129.25085449 267.3757019 C125.35497773 259.09513146 121.44375108 250.82205942 117.51171875 242.55859375 C115.98654045 239.35177094 114.46184023 236.14472127 112.9375 232.9375 C112.56056 232.144646 112.18362 231.35179199 111.79525757 230.53491211 C106.43110935 219.24257403 101.19855342 207.89771941 96.0625 196.5 C91.14611131 185.59057688 86.01838243 174.8218213 80.59765625 164.15234375 C77.87584299 158.7874178 75.27214002 153.36959308 72.6875 147.9375 C68.546503 139.23746391 64.37961889 130.5505278 60.1875 121.875 C59.59707198 120.65259495 59.00665862 119.43018281 58.41625977 118.20776367 C55.68183111 112.54690252 52.94549673 106.88696525 50.20762634 101.22776794 C43.73633267 87.85030779 37.29129076 74.46336222 31 61 C20.77 60.67 10.54 60.34 0 60 C0 40.2 0 20.4 0 0 Z " fill="#042E91" transform="translate(525,232)"/>
<path d="M0 0 C0 3.19973485 -0.53082973 4.26825154 -1.96679688 7.03710938 C-4.34257944 12.23135065 -4.58154067 16.7564311 -4.53125 22.40625 C-4.5350769 23.37099243 -4.53890381 24.33573486 -4.54284668 25.32971191 C-4.54555228 27.35670016 -4.53828652 29.38372412 -4.52148438 31.41064453 C-4.50005555 34.49201184 -4.52133261 37.57104792 -4.546875 40.65234375 C-4.54423148 42.63281758 -4.53910601 44.61328998 -4.53125 46.59375 C-4.53934692 47.50338501 -4.54744385 48.41302002 -4.55578613 49.35021973 C-4.43658208 57.58672434 -1.92723569 65.07276431 4 71 C13.95926307 79.47649438 28.17104677 78.29663217 40.51391602 78.25878906 C42.0234392 78.26150656 43.53296107 78.26507171 45.04248047 78.26940918 C49.10233799 78.27844455 53.16209265 78.27502611 57.22195172 78.26865101 C61.49374981 78.26354567 65.76553978 78.26829486 70.03733826 78.27142334 C77.20646731 78.27504948 84.37555498 78.27029912 91.54467773 78.26074219 C99.80570939 78.24985609 108.06664231 78.25338981 116.32767159 78.264395 C123.45163771 78.27350158 130.5755743 78.27473685 137.69954437 78.26951766 C141.94078591 78.26641697 146.1819812 78.26593595 150.42321968 78.27259064 C154.41162563 78.27841294 158.39990554 78.2742789 162.38829803 78.26280212 C163.84263081 78.26018162 165.2969744 78.26087532 166.75130272 78.26532745 C184.55273253 78.65116977 184.55273253 78.65116977 200 71 C202.21577327 68.46119828 204.11886228 65.79118665 206 63 C206.9936591 61.66193447 207.99197765 60.32727869 209 59 C208.14721752 66.24865111 203.58067675 70.93054643 198.21484375 75.45703125 C191.613557 80.05581126 183.22137785 81.1238684 175.34176636 81.12698364 C173.6862249 81.13121338 173.6862249 81.13121338 171.99723816 81.13552856 C170.80044937 81.13350433 169.60366058 81.1314801 168.37060547 81.12939453 C167.09797348 81.13114685 165.82534149 81.13289917 164.5141449 81.13470459 C161.02718446 81.13925721 157.54025369 81.1374956 154.05329275 81.1343255 C150.37350992 81.13177873 146.69372948 81.13414697 143.01394653 81.13571167 C136.81170198 81.13753165 130.60946931 81.13513678 124.40722656 81.13037109 C117.31286357 81.12498161 110.21852956 81.12665259 103.12416732 81.1321975 C96.98607736 81.13679743 90.84799593 81.13734465 84.70990479 81.13475883 C81.06609828 81.13322639 77.42230516 81.13291502 73.7784996 81.13629532 C59.39055539 81.14755226 45.0049879 81.07117776 30.62158203 80.67919922 C29.49315321 80.65723543 28.36472439 80.63527164 27.20210075 80.61264229 C16.84379552 80.27374997 8.59638752 78.62620272 0.98046875 71.3203125 C-5.71229966 63.47908087 -7.14957465 55.36072944 -7.203125 45.33203125 C-7.20882507 44.49717697 -7.21452515 43.66232269 -7.22039795 42.8021698 C-7.22982168 41.03796647 -7.23637146 39.27374575 -7.24023438 37.50952148 C-7.2499051 34.83870891 -7.28093867 32.16867801 -7.3125 29.49804688 C-7.44863969 7.70548933 -7.44863969 7.70548933 0 0 Z " fill="#03267E" transform="translate(410,485)"/>
<path d="M0 0 C0.69873305 -0.00367669 1.39746609 -0.00735338 2.11737287 -0.01114148 C4.45857629 -0.0221538 6.79973528 -0.02601801 9.14096069 -0.02983093 C10.81988668 -0.03609751 12.49881128 -0.04274449 14.17773438 -0.04974365 C19.69199664 -0.07076604 25.20625912 -0.08114541 30.72055054 -0.09111023 C32.62100616 -0.09515868 34.52146164 -0.09927563 36.42191696 -0.10346031 C45.35253432 -0.12250921 54.28314342 -0.13674 63.21377718 -0.14507228 C73.51128645 -0.15483923 83.80858045 -0.18114588 94.10601389 -0.22157317 C102.07221646 -0.25177113 110.03835746 -0.26654471 118.00461614 -0.26985329 C122.75909123 -0.27219987 127.51333627 -0.28110902 132.26774979 -0.30631447 C136.74445707 -0.32966421 141.22078397 -0.3338008 145.69753647 -0.32355309 C147.33493569 -0.32305926 148.97235408 -0.32933413 150.60969543 -0.34310913 C160.80570394 -0.42404519 168.85729625 0.48401224 177.80648804 5.77217102 C186.0604594 14.48469635 188.38510986 24.30355617 188.32211304 35.97920227 C188.32402649 36.77823471 188.32593994 37.57726715 188.32791138 38.4005127 C188.32926077 40.07184671 188.32565239 41.74319166 188.31723022 43.414505 C188.30644101 45.97081321 188.31720404 48.52643012 188.32992554 51.0827179 C188.32860511 52.7148809 188.32604513 54.34704347 188.32211304 55.97920227 C188.3261615 56.73965347 188.33020996 57.50010468 188.3343811 58.28359985 C188.30001656 62.16149589 187.9324013 64.77552562 186.05648804 68.14717102 C186.0506218 67.60117249 186.04475555 67.05517395 186.03871155 66.49263 C185.97450479 60.78160435 185.89001665 55.07112806 185.79403687 49.36054993 C185.76089521 47.23269418 185.73283016 45.10475279 185.71005249 42.97676086 C185.67630832 39.90819494 185.62398236 36.8404062 185.56820679 33.77217102 C185.5586219 32.35762634 185.5586219 32.35762634 185.54884338 30.914505 C185.32913434 20.92112494 182.31117046 14.09757317 175.05648804 7.14717102 C170.63130283 3.95692122 167.22852544 3.0994883 161.86898804 3.14717102 C160.61086304 3.14717102 159.35273804 3.14717102 158.05648804 3.14717102 C157.72648804 2.81717102 157.39648804 2.48717102 157.05648804 2.14717102 C156.06648804 2.80717102 155.07648804 3.46717102 154.05648804 4.14717102 C153.06648804 3.65217102 153.06648804 3.65217102 152.05648804 3.14717102 C151.12836304 3.31217102 150.20023804 3.47717102 149.24398804 3.64717102 C146.05648804 4.14717102 146.05648804 4.14717102 143.68148804 3.64717102 C139.95416326 2.9372044 136.81213057 3.6019971 133.05648804 4.14717102 C132.06648804 4.14717102 131.07648804 4.14717102 130.05648804 4.14717102 C129.72648804 3.48717102 129.39648804 2.82717102 129.05648804 2.14717102 C128.33461304 2.49779602 127.61273804 2.84842102 126.86898804 3.20967102 C123.69568607 4.26743834 122.23398328 3.98335398 119.05648804 3.14717102 C118.06648804 3.14717102 117.07648804 3.14717102 116.05648804 3.14717102 C115.06648804 3.14717102 114.07648804 3.14717102 113.05648804 3.14717102 C112.72648804 2.48717102 112.39648804 1.82717102 112.05648804 1.14717102 C110.73648804 1.14717102 109.41648804 1.14717102 108.05648804 1.14717102 C107.72648804 2.13717102 107.39648804 3.12717102 107.05648804 4.14717102 C106.16961304 3.96154602 105.28273804 3.77592102 104.36898804 3.58467102 C101.16918842 3.16205598 99.1572268 3.47674102 96.05648804 4.14717102 C95.06648804 3.81717102 94.07648804 3.48717102 93.05648804 3.14717102 C92.25211304 3.35342102 91.44773804 3.55967102 90.61898804 3.77217102 C88.05648804 4.14717102 88.05648804 4.14717102 85.74398804 2.70967102 C85.18711304 2.19404602 84.63023804 1.67842102 84.05648804 1.14717102 C83.72648804 2.13717102 83.39648804 3.12717102 83.05648804 4.14717102 C80.30622386 4.20121551 77.55702601 4.24086408 74.80648804 4.27217102 C74.02918335 4.28892883 73.25187866 4.30568665 72.45101929 4.32295227 C65.4022472 4.38319819 65.4022472 4.38319819 62.05648804 2.14717102 C61.06648804 1.65217102 61.06648804 1.65217102 60.05648804 1.14717102 C59.72648804 2.13717102 59.39648804 3.12717102 59.05648804 4.14717102 C58.08711304 3.98217102 57.11773804 3.81717102 56.11898804 3.64717102 C54.09665232 3.28724809 54.09665232 3.28724809 52.05648804 3.14717102 C50.05648804 3.14717102 48.05648804 3.14717102 46.05648804 3.14717102 C46.05648804 2.48717102 46.05648804 1.82717102 46.05648804 1.14717102 C45.39648804 1.14717102 44.73648804 1.14717102 44.05648804 1.14717102 C43.72648804 2.13717102 43.39648804 3.12717102 43.05648804 4.14717102 C40.58148804 3.65217102 40.58148804 3.65217102 38.05648804 3.14717102 C38.05648804 3.80717102 38.05648804 4.46717102 38.05648804 5.14717102 C36.73648804 5.14717102 35.41648804 5.14717102 34.05648804 5.14717102 C34.05648804 4.48717102 34.05648804 3.82717102 34.05648804 3.14717102 C32.07648804 3.47717102 30.09648804 3.80717102 28.05648804 4.14717102 C27.56148804 3.15717102 27.56148804 3.15717102 27.05648804 2.14717102 C25.03185549 1.4950381 25.03185549 1.4950381 23.05648804 1.14717102 C22.72648804 2.13717102 22.39648804 3.12717102 22.05648804 4.14717102 C22.05648804 3.15717102 22.05648804 2.16717102 22.05648804 1.14717102 C21.72648804 1.80717102 21.39648804 2.46717102 21.05648804 3.14717102 C18.72836304 3.59638977 18.72836304 3.59638977 15.80648804 3.83467102 C14.85258179 3.92103821 13.89867554 4.0074054 12.91586304 4.09638977 C10.11092799 4.14620419 7.78288323 3.755578 5.05648804 3.14717102 C4.06648804 3.14717102 3.07648804 3.14717102 2.05648804 3.14717102 C0.89053101 2.86486633 0.89053101 2.86486633 -0.29898071 2.57685852 C-7.50943915 1.40529216 -14.76621103 5.20908481 -20.58023071 9.15888977 C-21.03011353 9.48502258 -21.47999634 9.8111554 -21.94351196 10.14717102 C-20.69189424 6.39231786 -19.487766 5.97822974 -16.13101196 4.02217102 C-14.82196899 3.24486633 -14.82196899 3.24486633 -13.48648071 2.45185852 C-8.94713933 0.1229184 -5.08938391 0.01737572 0 0 Z M39.05648804 1.14717102 C43.05648804 2.14717102 43.05648804 2.14717102 43.05648804 2.14717102 Z M55.05648804 1.14717102 C59.05648804 2.14717102 59.05648804 2.14717102 59.05648804 2.14717102 Z M68.05648804 1.14717102 C68.05648804 1.47717102 68.05648804 1.80717102 68.05648804 2.14717102 C71.02648804 2.14717102 73.99648804 2.14717102 77.05648804 2.14717102 C77.05648804 1.81717102 77.05648804 1.48717102 77.05648804 1.14717102 C74.08648804 1.14717102 71.11648804 1.14717102 68.05648804 1.14717102 Z M78.05648804 1.14717102 C82.05648804 2.14717102 82.05648804 2.14717102 82.05648804 2.14717102 Z M119.05648804 1.14717102 C123.05648804 2.14717102 123.05648804 2.14717102 123.05648804 2.14717102 Z M132.05648804 1.14717102 C133.05648804 3.14717102 133.05648804 3.14717102 133.05648804 3.14717102 Z M134.05648804 1.14717102 C138.05648804 2.14717102 138.05648804 2.14717102 138.05648804 2.14717102 Z " fill="#042782" transform="translate(432.9435119628906,474.8528289794922)"/>
<path d="M0 0 C57.42 0 114.84 0 174 0 C193.09090909 40.72727273 193.09090909 40.72727273 192 44 C189.61365264 38.96550064 187.22926952 33.93007754 184.84667969 28.89379883 C184.0363432 27.18163103 183.2254762 25.4697142 182.4140625 23.75805664 C181.24598937 21.29379453 180.07984451 18.8286279 178.9140625 16.36328125 C178.37176498 15.22080681 178.37176498 15.22080681 177.81851196 14.05525208 C177.47831024 13.33488266 177.13810852 12.61451324 176.78759766 11.87231445 C176.34125473 10.92966484 176.34125473 10.92966484 175.88589478 9.9679718 C174.85394689 7.67555019 173.93367005 5.33417513 173 3 C116.24 2.67 59.48 2.34 1 2 C0.01 4.97 -0.98 7.94 -2 11 C-2.60129928 12.48626402 -3.22700175 13.9635301 -3.90112305 15.41821289 C-4.24124924 16.15830093 -4.58137543 16.89838898 -4.93180847 17.66090393 C-5.28817886 18.4237822 -5.64454926 19.18666046 -6.01171875 19.97265625 C-6.38480667 20.78117538 -6.75789459 21.58969452 -7.14228821 22.42271423 C-8.31958881 24.97139022 -9.50341477 27.51697012 -10.6875 30.0625 C-11.49327445 31.80383481 -12.29861699 33.54536956 -13.10351562 35.28710938 C-15.06403034 39.52706472 -17.03039787 43.76425891 -19 48 C-20.32621099 44.02136704 -19.29697129 42.91058039 -17.5 39.1796875 C-16.94183594 38.00277344 -16.38367188 36.82585938 -15.80859375 35.61328125 C-15.20639332 34.3668664 -14.60352787 33.12077263 -14 31.875 C-8.95796944 21.36598414 -4.44947445 10.80586653 0 0 Z " fill="#033399" transform="translate(424,645)"/>
<path d="M0 0 C3.33764186 3.79475368 5.35662422 7.6787119 7.25 12.3125 C9.6439735 17.98381277 12.1964997 23.51966153 15 29 C18.03826774 34.95757375 20.79189649 40.98940835 23.42358398 47.13623047 C25.77555319 52.59001388 28.3847492 57.8634835 31.12890625 63.1328125 C33.96339671 68.99115395 36.43635999 75.01817331 39 81 C80.25 81 121.5 81 164 81 C159.05 70.44 154.1 59.88 149 49 C149.33 48.01 149.66 47.02 150 46 C151.89779651 49.93655665 153.79286792 53.87441949 155.6875 57.8125 C156.21794922 58.91271484 156.74839844 60.01292969 157.29492188 61.14648438 C158.87219648 64.42682849 160.4393631 67.71170981 162 71 C162.49838379 72.04720215 162.99676758 73.0944043 163.51025391 74.17333984 C164.19547119 75.6402124 164.19547119 75.6402124 164.89453125 77.13671875 C165.3016333 78.00385498 165.70873535 78.87099121 166.12817383 79.7644043 C167 82 167 82 167 85 C153.57654663 85.02334422 140.15309823 85.04102618 126.72962856 85.05181217 C120.49414278 85.05699329 114.25867106 85.06400237 108.02319336 85.07543945 C101.98661731 85.08644028 95.95005463 85.09231259 89.91346931 85.09487724 C87.62983045 85.09670094 85.34619217 85.10026063 83.06255913 85.10573006 C68.01369705 85.14028361 53.02870492 84.79421613 38 84 C37.42857874 82.70696168 36.85717631 81.41391504 36.28578186 80.12086487 C35.96758012 79.40080041 35.64937838 78.68073595 35.32153416 77.93885136 C34.66863827 76.46077038 34.0165836 74.98231775 33.36499023 73.50366211 C28.00493773 61.41087786 22.30031319 49.48152482 16.5161438 37.58728027 C14.8817298 34.22420242 13.2535742 30.85809617 11.625 27.4921875 C11.30910416 26.83931763 10.99320831 26.18644775 10.66773987 25.51379395 C9.77848477 23.67586673 8.88924209 21.83793351 8 20 C7.51660156 19.00258789 7.03320312 18.00517578 6.53515625 16.97753906 C5.37137879 14.57127882 4.21511679 12.16162062 3.0625 9.75 C2.73902588 9.08436035 2.41555176 8.4187207 2.08227539 7.73291016 C0.75665278 4.94010455 0 3.13776934 0 0 Z " fill="#043196" transform="translate(633,723)"/>
<path d="M0 0 C1.29579751 3.88739252 0.42935709 4.7783232 -1.359375 8.390625 C-1.89949219 9.49535156 -2.43960938 10.60007812 -2.99609375 11.73828125 C-3.57488281 12.89714844 -4.15367187 14.05601562 -4.75 15.25 C-10.92427709 27.79290189 -16.96662943 40.38477063 -23 53 C19.24 53 61.48 53 105 53 C105.99 50.03 105.99 50.03 107 47 C107.99 46.01 107.99 46.01 109 45 C108.34764225 49.43603269 107.15544109 51.68911782 105 56 C62.1 56 19.2 56 -25 56 C-23.87595539 49.25573236 -23.87595539 49.25573236 -22.1875 45.8359375 C-21.83429688 45.10632813 -21.48109375 44.37671875 -21.1171875 43.625 C-20.74851563 42.8825 -20.37984375 42.14 -20 41.375 C-19.2675229 39.88443472 -18.53823926 38.39229495 -17.8125 36.8984375 C-17.48894531 36.24536621 -17.16539062 35.59229492 -16.83203125 34.91943359 C-15.98508117 32.96558338 -15.45721239 31.07650626 -15 29 C-14.34 29 -13.68 29 -13 29 C-12.72365723 28.12585449 -12.44731445 27.25170898 -12.16259766 26.35107422 C-11.08062401 23.23239084 -9.83322784 20.35249482 -8.3984375 17.3828125 C-7.90859375 16.36445312 -7.41875 15.34609375 -6.9140625 14.296875 C-6.40617187 13.25015625 -5.89828125 12.2034375 -5.375 11.125 C-4.859375 10.05507813 -4.34375 8.98515625 -3.8125 7.8828125 C-2.54486479 5.25364318 -1.2739434 2.62611698 0 0 Z " fill="#043396" transform="translate(248,752)"/>
<path d="M0 0 C1 3 1 3 0.28515625 4.796875 C-4.49510536 12.43307565 -9.94677821 17.91373784 -18.7265625 20.4921875 C-23.46540806 21.55069252 -27.98910235 22.12477737 -32.84664917 22.12025452 C-33.99080795 22.12162918 -35.13496674 22.12300385 -36.313797 22.12442017 C-37.55457504 22.12082489 -38.79535309 22.11722961 -40.07373047 22.11352539 C-41.39133865 22.11367142 -42.70894684 22.11381744 -44.06648254 22.1139679 C-47.66726582 22.11425409 -51.26801559 22.10838617 -54.8687911 22.10139394 C-58.63641279 22.09513072 -62.40403529 22.09455425 -66.17166138 22.09336853 C-73.30070316 22.09026396 -80.42972956 22.08206237 -87.55876458 22.07201904 C-95.67724773 22.06083074 -103.79573163 22.05534061 -111.91422057 22.05032361 C-128.60948938 22.03987901 -145.30474272 22.02229652 -162 22 C-162 21.67 -162 21.34 -162 21 C-132.63 21 -103.26 21 -73 21 C-72.67 20.34 -72.34 19.68 -72 19 C-70.72995117 19.01047363 -69.45990234 19.02094727 -68.15136719 19.03173828 C-63.38772459 19.06825198 -58.62409407 19.0910134 -53.86035156 19.10986328 C-51.80824699 19.11984998 -49.75615637 19.13344401 -47.70410156 19.15087891 C-26.56149517 20.3029912 -26.56149517 20.3029912 -8 12 C-4.70901484 8.30498765 -2.12758829 4.46395861 0 0 Z " fill="#0241BA" transform="translate(618,544)"/>
<path d="M0 0 C2.91517292 1.07401108 4.77810176 1.77810176 7 4 C7.24050903 6.51834106 7.24050903 6.51834106 7.22705078 9.73486328 C7.22689972 10.93595734 7.22674866 12.13705139 7.22659302 13.37454224 C7.21627045 14.67664642 7.20594788 15.97875061 7.1953125 17.3203125 C7.19158276 18.66266673 7.18873561 20.00502367 7.18673706 21.34738159 C7.17909744 24.882014 7.1594463 28.41648228 7.1373291 31.9510498 C7.11687765 35.55718729 7.10762735 39.16335206 7.09765625 42.76953125 C7.07726153 49.84649917 7.03811661 56.92301626 7 64 C-3.56 64 -14.12 64 -25 64 C-25.99 66.97 -26.98 69.94 -28 73 C-29.15012606 75.58978635 -30.319203 78.12447258 -31.57421875 80.66015625 C-31.90291458 81.33549911 -32.23161041 82.01084198 -32.57026672 82.70664978 C-33.60413989 84.82785666 -34.64564765 86.94520275 -35.6875 89.0625 C-36.39699693 90.51472366 -37.1059856 91.96719574 -37.81445312 93.41992188 C-39.53712057 96.94950692 -41.26663763 100.47565569 -43 104 C-44 101 -44 101 -42.96875 98.58984375 C-42.24171875 97.27693359 -42.24171875 97.27693359 -41.5 95.9375 C-40.03877219 93.37394066 -40.03877219 93.37394066 -39 91 C-39.33 90.34 -39.66 89.68 -40 89 C-39.01 89 -38.02 89 -37 89 C-36.87616943 88.27385498 -36.75233887 87.54770996 -36.62475586 86.79956055 C-36.01185343 84.05311578 -35.15522096 81.76875169 -34.00390625 79.20703125 C-33.61009766 78.32982422 -33.21628906 77.45261719 -32.81054688 76.54882812 C-32.39869141 75.64583984 -31.98683594 74.74285156 -31.5625 73.8125 C-31.15451172 72.89791016 -30.74652344 71.98332031 -30.32617188 71.04101562 C-27.25717023 64.25717023 -27.25717023 64.25717023 -25 62 C-23.07641602 61.77294922 -23.07641602 61.77294922 -20.75390625 61.8046875 C-19.49803711 61.81435547 -19.49803711 61.81435547 -18.21679688 61.82421875 C-16.90291992 61.84935547 -16.90291992 61.84935547 -15.5625 61.875 C-14.69044922 61.88402344 -13.81839844 61.89304687 -12.91992188 61.90234375 C-11.29755256 61.91980199 -9.67521868 61.94135777 -8.05297852 61.96826172 C-6.36882036 61.99429817 -4.6843594 62 -3 62 C-0.36 62 2.28 62 5 62 C5 42.86 5 23.72 5 4 C3.68 3.34 2.36 2.68 1 2 C0.505 1.01 0.505 1.01 0 0 Z " fill="#042B8C" transform="translate(491,228)"/>
<path d="M0 0 C0 3.19973485 -0.53082973 4.26825154 -1.96679688 7.03710938 C-4.34257944 12.23135065 -4.58154067 16.7564311 -4.53125 22.40625 C-4.5350769 23.37099243 -4.53890381 24.33573486 -4.54284668 25.32971191 C-4.54555228 27.35670016 -4.53828652 29.38372412 -4.52148438 31.41064453 C-4.50005555 34.49201184 -4.52133261 37.57104792 -4.546875 40.65234375 C-4.54423148 42.63281758 -4.53910601 44.61328998 -4.53125 46.59375 C-4.53934692 47.50338501 -4.54744385 48.41302002 -4.55578613 49.35021973 C-4.43658208 57.58672434 -1.92723569 65.07276431 4 71 C10.25915928 76.32727453 17.00188225 77.18311907 25 78 C24.67 78.66 24.34 79.32 24 80 C13.99502716 79.63217012 7.63901631 78.10666377 0.6875 70.6875 C-5.8555706 62.87430393 -7.14954929 55.36547923 -7.203125 45.33203125 C-7.20882507 44.49717697 -7.21452515 43.66232269 -7.22039795 42.8021698 C-7.22982168 41.03796647 -7.23637146 39.27374575 -7.24023438 37.50952148 C-7.2499051 34.83870891 -7.28093867 32.16867801 -7.3125 29.49804688 C-7.44863969 7.70548933 -7.44863969 7.70548933 0 0 Z " fill="#05339F" transform="translate(410,485)"/>
<path d="M0 0 C0.94735519 0.0028299 1.89471039 0.00565979 2.87077332 0.00857544 C5.88663541 0.01974063 8.90219691 0.04483861 11.91796875 0.0703125 C13.96679258 0.08034703 16.01562107 0.08947205 18.06445312 0.09765625 C23.07824023 0.11966801 28.09180358 0.15417279 33.10546875 0.1953125 C33.10546875 0.8553125 33.10546875 1.5153125 33.10546875 2.1953125 C34.36359375 2.0303125 35.62171875 1.8653125 36.91796875 1.6953125 C51.46876861 0.10417908 51.46876861 0.10417908 56.10546875 3.1953125 C55.11546875 3.5253125 54.12546875 3.8553125 53.10546875 4.1953125 C52.11546875 3.7003125 52.11546875 3.7003125 51.10546875 3.1953125 C50.17734375 3.3603125 49.24921875 3.5253125 48.29296875 3.6953125 C45.10546875 4.1953125 45.10546875 4.1953125 42.73046875 3.6953125 C39.00314397 2.98534588 35.86111129 3.65013858 32.10546875 4.1953125 C31.11546875 4.1953125 30.12546875 4.1953125 29.10546875 4.1953125 C28.61046875 3.2053125 28.61046875 3.2053125 28.10546875 2.1953125 C27.38359375 2.5459375 26.66171875 2.8965625 25.91796875 3.2578125 C22.74466679 4.31557982 21.28296399 4.03149546 18.10546875 3.1953125 C17.11546875 3.1953125 16.12546875 3.1953125 15.10546875 3.1953125 C14.11546875 3.1953125 13.12546875 3.1953125 12.10546875 3.1953125 C11.77546875 2.5353125 11.44546875 1.8753125 11.10546875 1.1953125 C9.78546875 1.1953125 8.46546875 1.1953125 7.10546875 1.1953125 C6.77546875 2.1853125 6.44546875 3.1753125 6.10546875 4.1953125 C5.21859375 4.0096875 4.33171875 3.8240625 3.41796875 3.6328125 C0.21816913 3.21019746 -1.79379249 3.5248825 -4.89453125 4.1953125 C-5.88453125 3.8653125 -6.87453125 3.5353125 -7.89453125 3.1953125 C-8.74015625 3.3809375 -9.58578125 3.5665625 -10.45703125 3.7578125 C-11.26140625 3.9021875 -12.06578125 4.0465625 -12.89453125 4.1953125 C-13.55453125 3.5353125 -14.21453125 2.8753125 -14.89453125 2.1953125 C-10.02966104 -0.3586339 -5.34710616 -0.06033879 0 0 Z M18.10546875 1.1953125 C22.10546875 2.1953125 22.10546875 2.1953125 22.10546875 2.1953125 Z M31.10546875 1.1953125 C32.10546875 3.1953125 32.10546875 3.1953125 32.10546875 3.1953125 Z " fill="#0748C2" transform="translate(533.89453125,474.8046875)"/>
<path d="M0 0 C1.29435886 3.88307658 0.43607521 4.75341459 -1.359375 8.35546875 C-2.15915771 9.98307129 -2.15915771 9.98307129 -2.97509766 11.64355469 C-3.56081543 12.81305664 -4.1465332 13.98255859 -4.75 15.1875 C-5.96556521 17.65268311 -7.17394293 20.12137185 -8.3828125 22.58984375 C-8.689841 23.21444489 -8.99686951 23.83904602 -9.3132019 24.48257446 C-12.19356814 30.35550176 -14.92558444 36.29186622 -17.625 42.25 C-22.92349864 53.91060373 -28.43294203 65.46556361 -34 77 C-35 74 -35 74 -33.5625 71 C-33.046875 70.01 -32.53125 69.02 -32 68 C-32 67.01 -32 66.02 -32 65 C-31.34 65 -30.68 65 -30 65 C-29.72454346 64.12617676 -29.44908691 63.25235352 -29.1652832 62.35205078 C-28.07587799 59.21827045 -26.81409972 56.34366247 -25.35546875 53.3671875 C-24.84306641 52.31273437 -24.33066406 51.25828125 -23.80273438 50.171875 C-23.26970703 49.08390625 -22.73667969 47.9959375 -22.1875 46.875 C-18.60582776 39.56112789 -15.21562349 32.23452774 -12.13208008 24.69628906 C-10.65719581 21.18353903 -8.99223585 17.82560911 -7.25 14.4375 C-4.87694904 9.82224445 -4.87694904 9.82224445 -3 5 C-2.02308143 3.31970006 -1.02611949 1.65071396 0 0 Z " fill="#043198" transform="translate(396,438)"/>
<path d="M0 0 C0.33 0 0.66 0 1 0 C1.80202014 7.47587807 2.1375953 14.8394067 2.09765625 22.35546875 C2.09553383 23.89694328 2.09553383 23.89694328 2.09336853 25.46955872 C2.08783066 28.70890379 2.0752903 31.94817629 2.0625 35.1875 C2.05747695 37.4016917 2.05291546 39.6158845 2.04882812 41.83007812 C2.03788169 47.22007628 2.0212069 52.61003295 2 58 C3.95292969 57.98259766 3.95292969 57.98259766 5.9453125 57.96484375 C7.67187356 57.95546027 9.39843618 57.94636066 11.125 57.9375 C11.9809375 57.92912109 12.836875 57.92074219 13.71875 57.91210938 C18.26678411 57.89461694 22.52383164 58.06807642 27 59 C27 59.33 27 59.66 27 60 C18.09 60 9.18 60 0 60 C0 40.2 0 20.4 0 0 Z " fill="#04277F" transform="translate(525,232)"/>
<path d="M0 0 C0.92065247 0.00007553 1.84130493 0.00015106 2.78985596 0.00022888 C3.77540466 0.00539017 4.76095337 0.01055145 5.77636719 0.01586914 C6.79172546 0.01728409 7.80708374 0.01869904 8.85321045 0.02015686 C12.09325111 0.02575023 15.33322244 0.03830154 18.57324219 0.05102539 C20.77115786 0.05604125 22.96907461 0.060604 25.16699219 0.06469727 C30.55243247 0.07571749 35.93783238 0.09244906 41.32324219 0.11352539 C41.32324219 0.44352539 41.32324219 0.77352539 41.32324219 1.11352539 C36.04324219 1.11352539 30.76324219 1.11352539 25.32324219 1.11352539 C24.99324219 2.10352539 24.66324219 3.09352539 24.32324219 4.11352539 C24.32324219 3.12352539 24.32324219 2.13352539 24.32324219 1.11352539 C23.99324219 1.77352539 23.66324219 2.43352539 23.32324219 3.11352539 C20.99511719 3.56274414 20.99511719 3.56274414 18.07324219 3.80102539 C17.11933594 3.88739258 16.16542969 3.97375977 15.18261719 4.06274414 C12.37768214 4.11255856 10.04963738 3.72193237 7.32324219 3.11352539 C6.33324219 3.11352539 5.34324219 3.11352539 4.32324219 3.11352539 C3.15728516 2.8312207 3.15728516 2.8312207 1.96777344 2.54321289 C-5.242685 1.37164653 -12.49945688 5.17543918 -18.31347656 9.12524414 C-18.76335937 9.45137695 -19.21324219 9.77750977 -19.67675781 10.11352539 C-18.42514009 6.35867223 -17.22101184 5.94458411 -13.86425781 3.98852539 C-12.55521484 3.2112207 -12.55521484 3.2112207 -11.21972656 2.41821289 C-7.42263915 0.47009124 -4.2440533 -0.01165949 0 0 Z " fill="#04267E" transform="translate(430.6767578125,474.886474609375)"/>
<path d="M0 0 C1.67121954 2.5068293 2.7388735 4.62388376 3.875 7.375 C6.95385684 14.31928295 10.94058548 18.98240315 18 22 C22.30944453 22.95765434 26.61036685 23.55166857 31 24 C30.67 24.66 30.34 25.32 30 26 C19.99502716 25.63217012 13.63901631 24.10666377 6.6875 16.6875 C2.87250431 12.12299632 0.20098521 8.14876836 -0.1875 2.0625 C-0.125625 1.381875 -0.06375 0.70125 0 0 Z " fill="#032E91" transform="translate(404,539)"/>
<path d="M0 0 C1.1392711 3.4178133 0.96943784 3.68934285 -0.53881836 6.73706055 C-0.89926743 7.47760178 -1.25971649 8.21814301 -1.63108826 8.98112488 C-2.02997757 9.77497086 -2.42886688 10.56881683 -2.83984375 11.38671875 C-3.24078751 12.20372757 -3.64173126 13.02073639 -4.05482483 13.86250305 C-5.33980554 16.47551315 -6.63843964 19.0814655 -7.9375 21.6875 C-8.81015132 23.45593316 -9.68190772 25.22480823 -10.55273438 26.99414062 C-12.6914654 31.33462643 -14.84246731 35.66883128 -17 40 C-19.03728469 33.88814594 -12.9489247 25.84402608 -10.125 20.1875 C-9.08695969 18.12187026 -8.04640897 16.05752642 -7.00488281 13.99365234 C-5.49571658 10.99951933 -3.99807404 7.99969803 -2.5 5 C-1.66666667 3.33333333 -0.83333333 1.66666667 0 0 Z " fill="#042E92" transform="translate(446,332)"/>
<path d="M0 0 C0.33 0 0.66 0 1 0 C1.33 6.6 1.66 13.2 2 20 C-4.93 20 -11.86 20 -19 20 C-18.67 19.34 -18.34 18.68 -18 18 C-12 18 -6 18 0 18 C0 12.06 0 6.12 0 0 Z " fill="#073AA6" transform="translate(496,272)"/>
<path d="M0 0 C-0.33 0.99 -0.66 1.98 -1 3 C-2.65 2.67 -4.3 2.34 -6 2 C-6 2.66 -6 3.32 -6 4 C-7.32 4 -8.64 4 -10 4 C-10 3.34 -10 2.68 -10 2 C-11.98 2.33 -13.96 2.66 -16 3 C-16.33 2.34 -16.66 1.68 -17 1 C-11.33357449 -0.22517308 -5.76291482 -0.09228867 0 0 Z " fill="#0962F8" transform="translate(477,476)"/>
<path d="M0 0 C1.18239258 0.00676758 1.18239258 0.00676758 2.38867188 0.01367188 C4.32164761 0.02538688 6.25458393 0.04332002 8.1875 0.0625 C7.8575 1.0525 7.5275 2.0425 7.1875 3.0625 C4.43723583 3.11654449 1.68803797 3.15619306 -1.0625 3.1875 C-1.83980469 3.20425781 -2.61710937 3.22101563 -3.41796875 3.23828125 C-10.53681144 3.29912606 -10.53681144 3.29912606 -13.8125 1.0625 C-9.18790756 -0.11450048 -4.73383538 -0.05158412 0 0 Z " fill="#0961F6" transform="translate(508.8125,475.9375)"/>
<path d="M0 0 C1.65322266 0.01740234 1.65322266 0.01740234 3.33984375 0.03515625 C4.99693359 0.04869141 4.99693359 0.04869141 6.6875 0.0625 C7.54214844 0.07410156 8.39679688 0.08570313 9.27734375 0.09765625 C9.60734375 0.75765625 9.93734375 1.41765625 10.27734375 2.09765625 C8.50820551 2.31992489 6.73690004 2.52499498 4.96484375 2.72265625 C3.97871094 2.83867187 2.99257813 2.9546875 1.9765625 3.07421875 C-0.72265625 3.09765625 -0.72265625 3.09765625 -3.72265625 1.09765625 C-2.72265625 0.09765625 -2.72265625 0.09765625 0 0 Z " fill="#0862F6" transform="translate(443.72265625,475.90234375)"/>
<path d="M0 0 C0.99 0.495 0.99 0.495 2 1 C1.67 1.99 1.34 2.98 1 4 C0.67 2.68 0.34 1.36 0 0 Z " fill="#0E52CF" transform="translate(798,799)"/>
<path d="M0 0 C0.66 0.66 1.32 1.32 2 2 C0.68 1.67 -0.64 1.34 -2 1 C-1.34 0.67 -0.68 0.34 0 0 Z " fill="#0C65F9" transform="translate(500,504)"/>
<path d="M0 0 C0.66 0 1.32 0 2 0 C2 0.66 2 1.32 2 2 C1.34 2 0.68 2 0 2 C0 1.34 0 0.68 0 0 Z " fill="#0B5CF0" transform="translate(438,504)"/>
<path d="M0 0 C3 1 3 1 3 1 Z " fill="#095DF2" transform="translate(595,478)"/>
<path d="M0 0 C0.33 0.66 0.66 1.32 1 2 C0.34 1.67 -0.32 1.34 -1 1 C-0.67 0.67 -0.34 0.34 0 0 Z " fill="#0D5AEA" transform="translate(606,387)"/>
<path d="" fill="#0B55E3" transform="translate(0,0)"/>
<path d="" fill="#0A59EC" transform="translate(0,0)"/>
<path d="" fill="#0E59E6" transform="translate(0,0)"/>
<path d="" fill="#0C57E8" transform="translate(0,0)"/>
<path d="" fill="#0C58E8" transform="translate(0,0)"/>
<path d="" fill="#0D59E8" transform="translate(0,0)"/>
<path d="" fill="#0E57E3" transform="translate(0,0)"/>
<path d="" fill="#0A5CF0" transform="translate(0,0)"/>
<path d="" fill="#0D5AE8" transform="translate(0,0)"/>
<path d="M0 0 C2 1 2 1 2 1 Z " fill="#0B59F0" transform="translate(428,527)"/>
<path d="M0 0 C2 1 2 1 2 1 Z " fill="#0D66F7" transform="translate(550,505)"/>
<path d="" fill="#0A61F7" transform="translate(0,0)"/>
<path d="M0 0 C2 1 2 1 2 1 Z " fill="#0C67F7" transform="translate(527,505)"/>
<path d="M0 0 C2 1 2 1 2 1 Z " fill="#0C67F9" transform="translate(519,505)"/>
<path d="M0 0 C2 1 2 1 2 1 Z " fill="#0B67F8" transform="translate(510,505)"/>
<path d="" fill="#095DF4" transform="translate(0,0)"/>
<path d="" fill="#0A5CF4" transform="translate(0,0)"/>
<path d="" fill="#0D5CF1" transform="translate(0,0)"/>
<path d="M0 0 C2 1 2 1 2 1 Z " fill="#0C62F8" transform="translate(542,477)"/>
<path d="" fill="#0E57E3" transform="translate(0,0)"/>
<path d="" fill="#0C59EA" transform="translate(0,0)"/>
<path d="" fill="#353B42" transform="translate(0,0)"/>
<path d="" fill="#0F55DA" transform="translate(0,0)"/>
<path d="" fill="#0F55DB" transform="translate(0,0)"/>
<path d="" fill="#0858E5" transform="translate(0,0)"/>
<path d="" fill="#0F54CF" transform="translate(0,0)"/>
<path d="" fill="#0F53D3" transform="translate(0,0)"/>
<path d="" fill="#0D56DE" transform="translate(0,0)"/>
<path d="" fill="#0D56DC" transform="translate(0,0)"/>
<path d="" fill="#0C55DF" transform="translate(0,0)"/>
<path d="" fill="#0E5ADE" transform="translate(0,0)"/>
<path d="" fill="#0E5FEA" transform="translate(0,0)"/>
<path d="" fill="#0958F0" transform="translate(0,0)"/>
<path d="" fill="#0958EB" transform="translate(0,0)"/>
<path d="" fill="#095BEE" transform="translate(0,0)"/>
<path d="" fill="#0D5AE5" transform="translate(0,0)"/>
<path d="" fill="#0E5BE5" transform="translate(0,0)"/>
<path d="" fill="#0859E8" transform="translate(0,0)"/>
<path d="" fill="#0B56EA" transform="translate(0,0)"/>
<path d="" fill="#0A59E8" transform="translate(0,0)"/>
<path d="" fill="#0A58E8" transform="translate(0,0)"/>
<path d="" fill="#0A58E6" transform="translate(0,0)"/>
<path d="" fill="#0F57E4" transform="translate(0,0)"/>
<path d="" fill="#0E5AE5" transform="translate(0,0)"/>
<path d="" fill="#0C58E8" transform="translate(0,0)"/>
<path d="" fill="#0958EB" transform="translate(0,0)"/>
<path d="" fill="#0A59E7" transform="translate(0,0)"/>
<path d="" fill="#0E58E5" transform="translate(0,0)"/>
<path d="" fill="#0F59E6" transform="translate(0,0)"/>
<path d="" fill="#0D5BEC" transform="translate(0,0)"/>
<path d="" fill="#0A56EB" transform="translate(0,0)"/>
<path d="" fill="#0B5CED" transform="translate(0,0)"/>
<path d="" fill="#0B5AEC" transform="translate(0,0)"/>
<path d="" fill="#0B57EA" transform="translate(0,0)"/>
<path d="" fill="#0A59E7" transform="translate(0,0)"/>
<path d="" fill="#0D58E5" transform="translate(0,0)"/>
<path d="" fill="#0C56E7" transform="translate(0,0)"/>
<path d="" fill="#0B57E7" transform="translate(0,0)"/>
<path d="" fill="#095AEC" transform="translate(0,0)"/>
<path d="" fill="#0C5BEE" transform="translate(0,0)"/>
<path d="" fill="#0657E8" transform="translate(0,0)"/>
<path d="" fill="#0A5BEA" transform="translate(0,0)"/>
<path d="" fill="#115CE7" transform="translate(0,0)"/>
<path d="" fill="#0C5AE6" transform="translate(0,0)"/>
<path d="" fill="#0C58EC" transform="translate(0,0)"/>
<path d="" fill="#0D5CE9" transform="translate(0,0)"/>
<path d="" fill="#0B59E9" transform="translate(0,0)"/>
<path d="" fill="#0A5BEB" transform="translate(0,0)"/>
<path d="" fill="#0B58E7" transform="translate(0,0)"/>
<path d="" fill="#0A58E6" transform="translate(0,0)"/>
<path d="" fill="#0E5BEA" transform="translate(0,0)"/>
<path d="" fill="#0A5AEB" transform="translate(0,0)"/>
<path d="" fill="#0B5BEB" transform="translate(0,0)"/>
<path d="" fill="#0C5AED" transform="translate(0,0)"/>
<path d="" fill="#0C5AEF" transform="translate(0,0)"/>
<path d="" fill="#0E5EE6" transform="translate(0,0)"/>
<path d="" fill="#0B5CEA" transform="translate(0,0)"/>
<path d="" fill="#0A5AEC" transform="translate(0,0)"/>
<path d="" fill="#085AEF" transform="translate(0,0)"/>
<path d="" fill="#0C5AEE" transform="translate(0,0)"/>
<path d="" fill="#0E5BE8" transform="translate(0,0)"/>
<path d="" fill="#105CE6" transform="translate(0,0)"/>
<path d="" fill="#0F59E6" transform="translate(0,0)"/>
<path d="" fill="#0E5BE4" transform="translate(0,0)"/>
<path d="" fill="#0A56E7" transform="translate(0,0)"/>
<path d="" fill="#0C5EEB" transform="translate(0,0)"/>
<path d="" fill="#085DF2" transform="translate(0,0)"/>
<path d="" fill="#0A58EB" transform="translate(0,0)"/>
<path d="" fill="#105CE9" transform="translate(0,0)"/>
<path d="" fill="#0C5CE7" transform="translate(0,0)"/>
<path d="" fill="#0C5BE9" transform="translate(0,0)"/>
<path d="" fill="#0D57E5" transform="translate(0,0)"/>
<path d="" fill="#0F5AE8" transform="translate(0,0)"/>
<path d="" fill="#0D5BE9" transform="translate(0,0)"/>
<path d="" fill="#0B5AEA" transform="translate(0,0)"/>
<path d="" fill="#0E66F4" transform="translate(0,0)"/>
<path d="" fill="#0A5DEE" transform="translate(0,0)"/>
<path d="" fill="#0D58E8" transform="translate(0,0)"/>
<path d="" fill="#0C59E8" transform="translate(0,0)"/>
<path d="" fill="#0D5CED" transform="translate(0,0)"/>
<path d="" fill="#0C5CE8" transform="translate(0,0)"/>
<path d="" fill="#0C5EF3" transform="translate(0,0)"/>
<path d="" fill="#0A58E6" transform="translate(0,0)"/>
<path d="" fill="#0C5DEF" transform="translate(0,0)"/>
<path d="" fill="#0C5CEE" transform="translate(0,0)"/>
<path d="" fill="#0B5CEB" transform="translate(0,0)"/>
<path d="" fill="#0A5EF3" transform="translate(0,0)"/>
<path d="" fill="#0A5CF1" transform="translate(0,0)"/>
<path d="" fill="#095DF5" transform="translate(0,0)"/>
<path d="" fill="#0A5EF2" transform="translate(0,0)"/>
<path d="" fill="#0C5CF5" transform="translate(0,0)"/>
<path d="" fill="#0E5EED" transform="translate(0,0)"/>
<path d="" fill="#0A5CF0" transform="translate(0,0)"/>
<path d="" fill="#0A58E2" transform="translate(0,0)"/>
<path d="" fill="#0E5CEE" transform="translate(0,0)"/>
<path d="" fill="#0E6AF9" transform="translate(0,0)"/>
<path d="" fill="#0D66F4" transform="translate(0,0)"/>
<path d="" fill="#0D63F5" transform="translate(0,0)"/>
<path d="" fill="#0F67F6" transform="translate(0,0)"/>
<path d="" fill="#0C67F8" transform="translate(0,0)"/>
<path d="" fill="#0E66FA" transform="translate(0,0)"/>
<path d="" fill="#0C69F7" transform="translate(0,0)"/>
<path d="" fill="#0C67F8" transform="translate(0,0)"/>
<path d="" fill="#0A67F6" transform="translate(0,0)"/>
<path d="" fill="#0961F6" transform="translate(0,0)"/>
<path d="" fill="#0B5FF5" transform="translate(0,0)"/>
<path d="" fill="#0A5DF4" transform="translate(0,0)"/>
<path d="" fill="#0D5AEA" transform="translate(0,0)"/>
<path d="" fill="#095AEA" transform="translate(0,0)"/>
<path d="" fill="#0A5AED" transform="translate(0,0)"/>
<path d="" fill="#095DEE" transform="translate(0,0)"/>
<path d="" fill="#0C5CEC" transform="translate(0,0)"/>
<path d="" fill="#095EED" transform="translate(0,0)"/>
<path d="" fill="#0A64FB" transform="translate(0,0)"/>
<path d="" fill="#0B5FFB" transform="translate(0,0)"/>
<path d="" fill="#0861FA" transform="translate(0,0)"/>
<path d="" fill="#0A61FC" transform="translate(0,0)"/>
<path d="" fill="#0A61FA" transform="translate(0,0)"/>
<path d="" fill="#0E60ED" transform="translate(0,0)"/>
<path d="" fill="#0B61FA" transform="translate(0,0)"/>
<path d="" fill="#0C5DF7" transform="translate(0,0)"/>
<path d="" fill="#095FF8" transform="translate(0,0)"/>
<path d="" fill="#0764F7" transform="translate(0,0)"/>
<path d="" fill="#0F59E5" transform="translate(0,0)"/>
<path d="" fill="#105DE6" transform="translate(0,0)"/>
<path d="" fill="#0D5CE8" transform="translate(0,0)"/>
<path d="" fill="#0F5BE3" transform="translate(0,0)"/>
<path d="" fill="#0E5AE4" transform="translate(0,0)"/>
<path d="" fill="#0D59E4" transform="translate(0,0)"/>
<path d="" fill="#0C5EEA" transform="translate(0,0)"/>
<path d="" fill="#0F5DEC" transform="translate(0,0)"/>
<path d="" fill="#0C59E6" transform="translate(0,0)"/>
<path d="" fill="#0F5AE6" transform="translate(0,0)"/>
<path d="" fill="#0D60F0" transform="translate(0,0)"/>
<path d="" fill="#0C5DEB" transform="translate(0,0)"/>
<path d="" fill="#0E5DED" transform="translate(0,0)"/>
<path d="" fill="#0A5AE8" transform="translate(0,0)"/>
<path d="" fill="#0B59EE" transform="translate(0,0)"/>
<path d="" fill="#0B5AE9" transform="translate(0,0)"/>
<path d="" fill="#095BE9" transform="translate(0,0)"/>
<path d="" fill="#0E5CEC" transform="translate(0,0)"/>
<path d="" fill="#105CE9" transform="translate(0,0)"/>
<path d="" fill="#0B59E7" transform="translate(0,0)"/>
<path d="" fill="#0E5BEA" transform="translate(0,0)"/>
<path d="" fill="#0C5AE9" transform="translate(0,0)"/>
<path d="" fill="#0959EA" transform="translate(0,0)"/>
<path d="" fill="#095AED" transform="translate(0,0)"/>
<path d="" fill="#0B5AE7" transform="translate(0,0)"/>
<path d="" fill="#0C5AE9" transform="translate(0,0)"/>
<path d="" fill="#0E58E2" transform="translate(0,0)"/>
<path d="" fill="#105BE4" transform="translate(0,0)"/>
<path d="" fill="#0B5AEA" transform="translate(0,0)"/>
<path d="" fill="#0E5BEE" transform="translate(0,0)"/>
<path d="" fill="#0C5AE8" transform="translate(0,0)"/>
<path d="" fill="#0E57E1" transform="translate(0,0)"/>
<path d="" fill="#0F57DF" transform="translate(0,0)"/>
<path d="" fill="#0D5AE7" transform="translate(0,0)"/>
<path d="" fill="#0F58E4" transform="translate(0,0)"/>
<path d="" fill="#0C59E4" transform="translate(0,0)"/>
<path d="" fill="#0E5EE6" transform="translate(0,0)"/>
<path d="" fill="#105AE4" transform="translate(0,0)"/>
<path d="" fill="#105AE8" transform="translate(0,0)"/>
<path d="" fill="#0E59E3" transform="translate(0,0)"/>
<path d="" fill="#0B57E4" transform="translate(0,0)"/>
<path d="" fill="#0C59DF" transform="translate(0,0)"/>
<path d="" fill="#0F58DA" transform="translate(0,0)"/>
<path d="" fill="#0B58E1" transform="translate(0,0)"/>
<path d="" fill="#0F54D4" transform="translate(0,0)"/>
</svg>
