<?xml version="1.0" encoding="utf-8" standalone="yes"?>
<!DOCTYPE svg PUBLIC "-//W3C//DTD SVG 1.1//EN" "http://www.w3.org/Graphics/SVG/1.1/DTD/svg11.dtd">
<svg style="fill:none;stroke:none;fill-rule:evenodd;clip-rule:evenodd;stroke-linecap:round;stroke-linejoin:round;stroke-miterlimit:1.5;" version="1.1" xmlns="http://www.w3.org/2000/svg" xmlns:xlink="http://www.w3.org/1999/xlink" width="675" height="600" viewBox="0 0 675 600"><style class="text-font-style fontImports" data-font-family="Roboto">@import url(https://fonts.googleapis.com/css2?family=Roboto:wght@400;700&amp;amp;display=block);</style><g id="items" style="isolation: isolate"><g id="blend" style="mix-blend-mode: normal"><g id="g-root-sy_0a_cu_vector_mbpsrv34lv62-fill" data-item-order="-91002" transform="translate(109, 469.999755859375)"><g id="sy_0a_cu_vector_mbpsrv34lv62-fill-merged" stroke="none" fill="#666666" fill-opacity="1"><g><path d="M64 31.778C64 46.812 51.912 59 37 59C22.088 59 10 46.812 10 31.778C10 22.873 14.241 14.967 20.797 10 H53.203C59.759 14.967 64 22.873 64 31.778"></path></g></g></g><g id="g-root-sy_0b_cu_hvwanf34lvyb-fill" data-item-order="-90998" transform="translate(40, 145.999755859375)"><g id="sy_0b_cu_hvwanf34lvyb-fill-merged" stroke="none" fill="#666666" fill-opacity="1"><g><path d="M130 94C130 77.432 143.432 64 160 64C176.568 64 190 77.432 190 94C190 103.814 185.288 112.527 178.003 118 H141.997C134.712 112.527 130 103.814 130 94 M130 34C130 47.255 119.255 58 106 58C92.745 58 82 47.255 82 34C82 20.745 92.745 10 106 10C119.255 10 130 20.745 130 34 M82 88C82 68.118 65.882 52 46 52C26.118 52 10 68.118 10 88C10 100.522 16.393 111.55 26.093 118 H65.907C75.607 111.55 82 100.522 82 88"></path></g></g></g><g id="g-root-sy_3_cu_Vector_4kfsa334lxj8-fill" data-item-order="-90994" transform="translate(84.33203125, 397.999755859375)"><g id="sy_3_cu_Vector_4kfsa334lxj8-fill-merged" stroke="none" fill="#92bd39" fill-opacity="1"><g><path d="M82.607 82C85.921 82 88.607 79.314 88.607 76 V55L113.055 10 H10L34.448 55 V76C34.448 79.314 37.134 82 40.448 82 H82.607"></path></g></g></g><g id="g-root-sy_2_cu_Vector_1uqjb3f34luz1-fill" data-item-order="-90990" transform="translate(45.21484375, 325.999755859375)"><g id="sy_2_cu_Vector_1uqjb3f34luz1-fill-merged" stroke="none" fill="#3cc583" fill-opacity="1"><g><path d="M49.117 82 H152.172L191.288 10 H10L49.117 82"></path></g></g></g><g id="g-root-sy_1_cu_Vector_1qapsyz34lvra-fill" data-item-order="-90986" transform="translate(14, 253.999755859375)"><g id="sy_1_cu_Vector_1qapsyz34lvra-fill-merged" stroke="none" fill="#1eabda" fill-opacity="1"><g><path d="M254 16C254 12.686 251.314 10 248 10 H16C12.686 10 10 12.686 10 16 V31.006C10 34.319 12.686 37.006 16 37.006 H16.77L41.215 82 H222.503L246.948 37.006 H248C251.314 37.006 254 34.319 254 31.006 V16"></path></g></g></g><g id="g-root-ic_calc_1uo1eqz34q5n1-fill" data-item-order="0" transform="translate(124, 157.999755859375)"></g><g id="g-root-ic_calc_mb3bor34q4ue-fill" data-item-order="0" transform="translate(58, 205.999755859375)"></g><g id="g-root-ic_calc_4mb7jf34lwjk-fill" data-item-order="0" transform="translate(175, 214.999755859375)"></g><g id="g-root-ic_moni_13zvfu334sy6k-fill" data-item-order="0" transform="translate(292, 217.999755859375)"></g><g id="g-root-tx_establec_6hpez34q32g-fill" data-item-order="0" transform="translate(352, 229.999755859375)"><g id="tx_establec_6hpez34q32g-fill-merged" stroke="none" fill="#1eabda" fill-opacity="1"><g><text style="font: bold 20px Roboto, sans-serif; white-space: pre;" font-weight="bold" font-size="20px" font-family="Roboto, sans-serif"><tspan x="12" y="33.5" dominant-baseline="ideographic">Establecer Objetivo de Utilidad</tspan></text></g></g></g><g id="g-root-tx_definien_1hf2sq334q32f-fill" data-item-order="0" transform="translate(352.23828125, 265.820068359375)"><g id="tx_definien_1hf2sq334q32f-fill-merged" stroke="none" fill="#484848" fill-opacity="1"><g><text style="font: 15px Roboto, sans-serif; white-space: pre;" font-size="15px" font-family="Roboto, sans-serif"><tspan x="12" y="27.5" dominant-baseline="ideographic">Definiendo el objetivo de utilidad neta </tspan><tspan x="12" y="45.5" dominant-baseline="ideographic">deseada</tspan></text></g></g></g><g id="g-root-ic_cata_v6qbxn34rhfq-fill" data-item-order="0" transform="translate(292, 337.999755859375)"></g><g id="g-root-tx_calcular_18mk5wr34q51e-fill" data-item-order="0" transform="translate(352, 349.999755859375)"><g id="tx_calcular_18mk5wr34q51e-fill-merged" stroke="none" fill="#3cc583" fill-opacity="1"><g><text style="font: bold 20px Roboto, sans-serif; white-space: pre;" font-weight="bold" font-size="20px" font-family="Roboto, sans-serif"><tspan x="12" y="33.5" dominant-baseline="ideographic">Calcular Ventas Meta</tspan></text></g></g></g><g id="g-root-tx_calculan_qu178r34q58h-fill" data-item-order="0" transform="translate(352.23828125, 385.820068359375)"><g id="tx_calculan_qu178r34q58h-fill-merged" stroke="none" fill="#484848" fill-opacity="1"><g><text style="font: 15px Roboto, sans-serif; white-space: pre;" font-size="15px" font-family="Roboto, sans-serif"><tspan x="12" y="27.5" dominant-baseline="ideographic">Calculando la facturación necesaria para </tspan><tspan x="12" y="45.5" dominant-baseline="ideographic">alcanzar el objetivo</tspan></text></g></g></g><g id="g-root-ic_coin_18foxyj34rk0d-fill" data-item-order="0" transform="translate(292, 457.999755859375)"></g><g id="g-root-ic_grap_dl2l7v34ooi4-fill" data-item-order="0" transform="translate(123, 477.999755859375)"></g><g id="g-root-tx_asignarp_m7yy9734rhtw-fill" data-item-order="0" transform="translate(352, 469.999755859375)"><g id="tx_asignarp_m7yy9734rhtw-fill-merged" stroke="none" fill="#92bd39" fill-opacity="1"><g><text style="font: bold 20px Roboto, sans-serif; white-space: pre;" font-weight="bold" font-size="20px" font-family="Roboto, sans-serif"><tspan x="12" y="33.5" dominant-baseline="ideographic">Asignar Porcentajes de Gasto</tspan></text></g></g></g><g id="g-root-tx_asignand_1uuwmp734q423-fill" data-item-order="0" transform="translate(352.23828125, 505.820068359375)"><g id="tx_asignand_1uuwmp734q423-fill-merged" stroke="none" fill="#484848" fill-opacity="1"><g><text style="font: 15px Roboto, sans-serif; white-space: pre;" font-size="15px" font-family="Roboto, sans-serif"><tspan x="12" y="27.5" dominant-baseline="ideographic">Asignando gastos para asegurar la </tspan><tspan x="12" y="45.5" dominant-baseline="ideographic">rentabilidad</tspan></text></g></g></g><g id="g-root-sy_0a_cu_vector_mbpsrv34lv62-stroke" data-item-order="-91002" transform="translate(109, 469.999755859375)"><g id="sy_0a_cu_vector_mbpsrv34lv62-stroke" fill="none" stroke-linecap="round" stroke-linejoin="round" stroke-miterlimit="4" stroke="#ffffff" stroke-width="2" stroke-opacity="1"><g><path d="M 64 31.7778C 64 46.8122 51.9117 59 37 59C 22.0883 59 10 46.8122 10 31.7778C 10.000001 22.8728 14.2409 14.9666 20.7974 10L 53.2026 10C 59.7592 14.9666 64 22.8729 64 31.7778Z"></path></g></g></g><g id="g-root-sy_0b_cu_hvwanf34lvyb-stroke" data-item-order="-90998" transform="translate(40, 145.999755859375)"><g id="sy_0b_cu_hvwanf34lvyb-stroke" fill="none" stroke-linecap="round" stroke-linejoin="round" stroke-miterlimit="4" stroke="#ffffff" stroke-width="2" stroke-opacity="1"><g><path d="M 130 94C 130 77.4315 143.4315 64 160 64C 176.5685 64 190 77.4315 190 94C 190 103.8136 185.2879 112.5266 178.0029 118L 141.9971 118C 134.7121 112.5266 130 103.8136 130 94ZM 130 34C 130 47.2548 119.2548 58 106 58C 92.7452 58 82 47.2548 82 34C 82 20.7452 92.7452 10 106 10C 119.2548 10 130 20.7452 130 34ZM 82 88C 82 68.1177 65.8823 52 46 52C 26.1177 52 10 68.1177 10 88C 10 100.5218 16.3931 111.5505 26.0932 118L 65.9068 118C 75.6069 111.5505 82 100.5218 82 88Z"></path></g></g></g><g id="g-root-sy_3_cu_Vector_4kfsa334lxj8-stroke" data-item-order="-90994" transform="translate(84.33203125, 397.999755859375)"><g id="sy_3_cu_Vector_4kfsa334lxj8-stroke" fill="none" stroke-linecap="round" stroke-linejoin="round" stroke-miterlimit="4" stroke="#ffffff" stroke-width="2" stroke-opacity="1"><g><path d="M 82.6074 82C 85.9211 82 88.6074 79.3137 88.6074 76L 88.6074 55L 113.0552 10L 10 10L 34.4478 55L 34.4478 76C 34.4478 79.3137 37.1341 82 40.4478 82L 82.6074 82Z"></path></g></g></g><g id="g-root-sy_2_cu_Vector_1uqjb3f34luz1-stroke" data-item-order="-90990" transform="translate(45.21484375, 325.999755859375)"><g id="sy_2_cu_Vector_1uqjb3f34luz1-stroke" fill="none" stroke-linecap="round" stroke-linejoin="round" stroke-miterlimit="4" stroke="#ffffff" stroke-width="2" stroke-opacity="1"><g><path d="M 49.1165 82L 152.1718 82L 191.2883 10L 10 10L 49.1165 82Z"></path></g></g></g><g id="g-root-sy_1_cu_Vector_1qapsyz34lvra-stroke" data-item-order="-90986" transform="translate(14, 253.999755859375)"><g id="sy_1_cu_Vector_1qapsyz34lvra-stroke" fill="none" stroke-linecap="round" stroke-linejoin="round" stroke-miterlimit="4" stroke="#ffffff" stroke-width="2" stroke-opacity="1"><g><path d="M 254 16C 254 12.6863 251.3137 10 248 10L 16 10C 12.6863 10 10 12.6863 10 16L 10 31.0055C 10 34.3192 12.6863 37.0055 16 37.0055L 16.7699 37.0055L 41.2148 82L 222.5031 82L 246.948 37.0055L 248 37.0055C 251.3137 37.0055 254 34.3192 254 31.0055L 254 16Z"></path></g></g></g><g id="g-root-ic_calc_1uo1eqz34q5n1-stroke" data-item-order="0" transform="translate(124, 157.999755859375)"><g id="ic_calc_1uo1eqz34q5n1-stroke" fill="none" stroke-linecap="round" stroke-linejoin="round" stroke-miterlimit="4" stroke="#ffffff" stroke-width="2" stroke-opacity="1"><g><path d="M 20.5 26.5L 11.5 26.5C 10.947715 26.5 10.5 26.052285 10.5 25.5L 10.5 11.5C 10.5 10.947715 10.947715 10.5 11.5 10.5L 28.5 10.5C 29.052285 10.5 29.5 10.947715 29.5 11.5L 29.5 18.5M 14.38 20.73L 17.57 17.57C 17.75814 17.377587 18.015891 17.269124 18.285 17.269124C 18.554109 17.269124 18.81186 17.377587 19 17.57L 20 18.57C 20.194309 18.768416 20.462377 18.877092 20.74 18.87C 21.018266 18.858682 21.279207 18.731835 21.46 18.52L 25.5 14M 22.5 14L 25.5 14L 25.5 17M 25.5 27.75C 25.638071 27.75 25.75 27.861929 25.75 28C 25.75 28.138071 25.638071 28.25 25.5 28.25C 25.361929 28.25 25.25 28.138071 25.25 28C 25.25 27.861929 25.361929 27.75 25.5 27.75M 25.5 30.26C 25.638071 30.26 25.75 30.371929 25.75 30.51C 25.75 30.648071 25.638071 30.76 25.5 30.76C 25.361929 30.76 25.25 30.648071 25.25 30.51C 25.25 30.371929 25.361929 30.26 25.5 30.26M 28 27.74C 28.138071 27.74 28.25 27.851929 28.25 27.99C 28.25 28.128071 28.138071 28.24 28 28.24C 27.861929 28.24 27.75 28.128071 27.75 27.99C 27.75 27.851929 27.861929 27.74 28 27.74M 30.5 27.74C 30.638071 27.74 30.75 27.851929 30.75 27.99C 30.75 28.128071 30.638071 28.24 30.5 28.24C 30.361929 28.24 30.25 28.128071 30.25 27.99C 30.25 27.851929 30.361929 27.74 30.5 27.74M 28 30.25C 28.138071 30.25 28.25 30.361929 28.25 30.5C 28.25 30.638071 28.138071 30.75 28 30.75C 27.861929 30.75 27.75 30.638071 27.75 30.5C 27.75 30.361929 27.861929 30.25 28 30.25M 30.5 30.25C 30.638071 30.25 30.75 30.361929 30.75 30.5C 30.75 30.638071 30.638071 30.75 30.5 30.75C 30.361929 30.75 30.25 30.638071 30.25 30.5C 30.25 30.361929 30.361929 30.25 30.5 30.25M 31.5 25C 31.508941 25.135151 31.459141 25.26759 31.363365 25.363365C 31.26759 25.459141 31.135151 25.508941 31 25.5L 25 25.5C 24.862014 25.506247 24.728025 25.452749 24.632288 25.353183C 24.536552 25.253616 24.488347 25.117633 24.499999 24.979999L 24.5 23C 24.491059 22.864848 24.540859 22.73241 24.636635 22.636635C 24.73241 22.540859 24.864848 22.491059 25 22.5L 31 22.5C 31.135151 22.491059 31.26759 22.540859 31.363365 22.636635C 31.459141 22.73241 31.508941 22.864848 31.5 23ZM 23.5 20.5L 32.5 20.5C 32.5 20.5 33.5 20.5 33.5 21.5L 33.5 32.5C 33.5 32.5 33.5 33.5 32.5 33.5L 23.5 33.5C 23.5 33.5 22.5 33.5 22.5 32.5L 22.5 21.5C 22.5 21.5 22.5 20.5 23.5 20.5"></path></g></g></g><g id="g-root-ic_calc_mb3bor34q4ue-stroke" data-item-order="0" transform="translate(58, 205.999755859375)"><g id="ic_calc_mb3bor34q4ue-stroke" fill="none" stroke-linecap="round" stroke-linejoin="round" stroke-miterlimit="4" stroke="#ffffff" stroke-width="2" stroke-opacity="1"><g><path d="M 25.75 34.75L 12.25 34.75C 11.421573 34.75 10.75 34.078426 10.75 33.25L 10.75 12.25C 10.75 11.421573 11.421573 10.75 12.25 10.75L 37.75 10.75C 38.578426 10.75 39.25 11.421573 39.25 12.25L 39.25 22.75M 16.57 26.094999L 21.355 21.355C 21.637211 21.066381 22.023836 20.903687 22.4275 20.903687C 22.831163 20.903687 23.217789 21.066381 23.5 21.355L 25 22.855C 25.291462 23.152622 25.693565 23.315639 26.110001 23.305C 26.527401 23.288023 26.918812 23.097754 27.190001 22.780001L 33.25 16M 28.75 16L 33.25 16L 33.25 20.5M 33.25 36.625C 33.457108 36.625 33.625 36.792892 33.625 37C 33.625 37.207108 33.457108 37.375 33.25 37.375C 33.042892 37.375 32.875 37.207108 32.875 37C 32.875 36.792892 33.042892 36.625 33.25 36.625M 33.25 40.389999C 33.457108 40.389999 33.625 40.557892 33.625 40.764999C 33.625 40.972107 33.457108 41.139999 33.25 41.139999C 33.042892 41.139999 32.875 40.972107 32.875 40.764999C 32.875 40.557892 33.042892 40.389999 33.25 40.389999M 37 36.610001C 37.207108 36.610001 37.375 36.777893 37.375 36.985001C 37.375 37.192108 37.207108 37.360001 37 37.360001C 36.792892 37.360001 36.625 37.192108 36.625 36.985001C 36.625 36.777893 36.792892 36.610001 37 36.610001M 40.75 36.610001C 40.957108 36.610001 41.125 36.777893 41.125 36.985001C 41.125 37.192108 40.957108 37.360001 40.75 37.360001C 40.542892 37.360001 40.375 37.192108 40.375 36.985001C 40.375 36.777893 40.542892 36.610001 40.75 36.610001M 37 40.375C 37.207108 40.375 37.375 40.542892 37.375 40.75C 37.375 40.957108 37.207108 41.125 37 41.125C 36.792892 41.125 36.625 40.957108 36.625 40.75C 36.625 40.542892 36.792892 40.375 37 40.375M 40.75 40.375C 40.957108 40.375 41.125 40.542892 41.125 40.75C 41.125 40.957108 40.957108 41.125 40.75 41.125C 40.542892 41.125 40.375 40.957108 40.375 40.75C 40.375 40.542892 40.542892 40.375 40.75 40.375M 42.25 32.5C 42.263412 32.702728 42.188713 32.901382 42.045048 33.045048C 41.901382 33.188713 41.702728 33.263412 41.5 33.25L 32.5 33.25C 32.293022 33.259369 32.092037 33.179123 31.948433 33.029774C 31.804827 32.880424 31.732521 32.676453 31.749998 32.470001L 31.75 29.5C 31.736589 29.297272 31.811289 29.098616 31.954952 28.954952C 32.098618 28.811289 32.297272 28.736589 32.5 28.75L 41.5 28.75C 41.702728 28.736589 41.901382 28.811289 42.045048 28.954952C 42.188713 29.098616 42.263412 29.297272 42.25 29.5ZM 30.25 25.75L 43.75 25.75C 43.75 25.75 45.25 25.75 45.25 27.25L 45.25 43.75C 45.25 43.75 45.25 45.25 43.75 45.25L 30.25 45.25C 30.25 45.25 28.75 45.25 28.75 43.75L 28.75 27.25C 28.75 27.25 28.75 25.75 30.25 25.75"></path></g></g></g><g id="g-root-ic_calc_4mb7jf34lwjk-stroke" data-item-order="0" transform="translate(175, 214.999755859375)"><g id="ic_calc_4mb7jf34lwjk-stroke" fill="none" stroke-linecap="round" stroke-linejoin="round" stroke-miterlimit="4" stroke="#ffffff" stroke-width="2" stroke-opacity="1"><g><path d="M 23.125 30.625L 11.875 30.625C 11.184644 30.625 10.625 30.065355 10.625 29.375L 10.625 11.875C 10.625 11.184644 11.184644 10.625 11.875 10.625L 33.125 10.625C 33.815353 10.625 34.375 11.184644 34.375 11.875L 34.375 20.625M 15.475 23.412498L 19.4625 19.4625C 19.697676 19.221985 20.019863 19.086405 20.356251 19.086405C 20.692636 19.086405 21.014824 19.221985 21.25 19.4625L 22.5 20.7125C 22.742886 20.96052 23.077972 21.096365 23.424999 21.0875C 23.772833 21.073353 24.099009 20.914795 24.325001 20.650002L 29.375 15M 25.625 15L 29.375 15L 29.375 18.75M 29.375 32.1875C 29.547588 32.1875 29.6875 32.327412 29.6875 32.5C 29.6875 32.672588 29.547588 32.8125 29.375 32.8125C 29.202412 32.8125 29.0625 32.672588 29.0625 32.5C 29.0625 32.327412 29.202412 32.1875 29.375 32.1875M 29.375 35.325001C 29.547588 35.325001 29.6875 35.464912 29.6875 35.637501C 29.6875 35.810089 29.547588 35.950001 29.375 35.950001C 29.202412 35.950001 29.0625 35.810089 29.0625 35.637501C 29.0625 35.464912 29.202412 35.325001 29.375 35.325001M 32.5 32.174999C 32.672588 32.174999 32.8125 32.314911 32.8125 32.487499C 32.8125 32.660088 32.672588 32.799999 32.5 32.799999C 32.327412 32.799999 32.1875 32.660088 32.1875 32.487499C 32.1875 32.314911 32.327412 32.174999 32.5 32.174999M 35.625 32.174999C 35.797588 32.174999 35.9375 32.314911 35.9375 32.487499C 35.9375 32.660088 35.797588 32.799999 35.625 32.799999C 35.452412 32.799999 35.3125 32.660088 35.3125 32.487499C 35.3125 32.314911 35.452412 32.174999 35.625 32.174999M 32.5 35.3125C 32.672588 35.3125 32.8125 35.452412 32.8125 35.625C 32.8125 35.797588 32.672588 35.9375 32.5 35.9375C 32.327412 35.9375 32.1875 35.797588 32.1875 35.625C 32.1875 35.452412 32.327412 35.3125 32.5 35.3125M 35.625 35.3125C 35.797588 35.3125 35.9375 35.452412 35.9375 35.625C 35.9375 35.797588 35.797588 35.9375 35.625 35.9375C 35.452412 35.9375 35.3125 35.797588 35.3125 35.625C 35.3125 35.452412 35.452412 35.3125 35.625 35.3125M 36.875 28.75C 36.886177 28.918938 36.823925 29.084488 36.704208 29.204206C 36.584488 29.323925 36.418938 29.386175 36.25 29.375L 28.75 29.375C 28.577517 29.382809 28.410032 29.315935 28.290359 29.191479C 28.170689 29.06702 28.110434 28.897041 28.124998 28.724998L 28.125 26.25C 28.113825 26.08106 28.176075 25.915512 28.295794 25.795794C 28.415512 25.676075 28.58106 25.613825 28.75 25.625L 36.25 25.625C 36.418938 25.613825 36.584488 25.676075 36.704208 25.795794C 36.823925 25.915512 36.886177 26.08106 36.875 26.25ZM 26.875 23.125L 38.125 23.125C 38.125 23.125 39.375 23.125 39.375 24.375L 39.375 38.125C 39.375 38.125 39.375 39.375 38.125 39.375L 26.875 39.375C 26.875 39.375 25.625 39.375 25.625 38.125L 25.625 24.375C 25.625 24.375 25.625 23.125 26.875 23.125"></path></g></g></g><g id="g-root-ic_moni_13zvfu334sy6k-stroke" data-item-order="0" transform="translate(292, 217.999755859375)"><g id="ic_moni_13zvfu334sy6k-stroke" fill="none" stroke-linecap="round" stroke-linejoin="round" stroke-miterlimit="4" stroke="#484848" stroke-width="2" stroke-opacity="1"><g><path d="M 20.5 48.5L 20.5 51.5M 30.5 54.5L 30.5 53.5C 30.5 47.977154 26.022848 43.5 20.5 43.5C 14.977153 43.5 10.5 47.977154 10.5 53.5L 10.5 54.5M 14.48 30C 16.663925 32.278023 19.684227 33.564182 22.84 33.560001C 24.420984 33.559593 25.9856 33.239868 27.439999 32.619999M 13.5 33.5C 13.5 37.365993 16.634007 40.5 20.5 40.5C 24.365993 40.5 27.5 37.365993 27.5 33.5C 27.5 29.634008 24.365993 26.500002 20.5 26.500002C 16.634007 26.500002 13.5 29.634008 13.5 33.5M 27.5 25.5L 27.5 16.5C 27.439007 15.73229 27.699211 14.973678 28.218575 14.405031C 28.737938 13.836384 29.469921 13.508662 30.24 13.5L 54.5 13.5C 56.156857 13.5 57.5 14.843145 57.5 16.5L 57.5 30.5C 57.5 32.156853 56.156857 33.5 54.5 33.5L 31.5 33.5M 42.5 33.5L 42.5 39.5M 35.5 39.5L 50.5 39.5M 42.5 27.5L 42.5 29.5M 42.5 17.5L 42.5 19.5M 38.5 27.5L 44.5 27.5C 45.604568 27.5 46.5 26.60457 46.5 25.5C 46.5 24.395432 45.604568 23.5 44.5 23.5L 40.5 23.5C 39.395432 23.5 38.5 22.604568 38.5 21.5C 38.5 20.395432 39.395432 19.5 40.5 19.5L 46.5 19.5"></path></g></g></g><g id="g-root-tx_establec_6hpez34q32g-stroke" data-item-order="0" transform="translate(352, 229.999755859375)"></g><g id="g-root-tx_definien_1hf2sq334q32f-stroke" data-item-order="0" transform="translate(352.23828125, 265.820068359375)"></g><g id="g-root-ic_cata_v6qbxn34rhfq-stroke" data-item-order="0" transform="translate(292, 337.999755859375)"><g id="ic_cata_v6qbxn34rhfq-stroke" fill="none" stroke-linecap="round" stroke-linejoin="round" stroke-miterlimit="4" stroke="#484848" stroke-width="2" stroke-opacity="1"><g><path d="M 34 55.466L 32.896 54.362C 29.020895 50.487827 23.765568 48.3116 18.285999 48.312L 13.044 48.312C 11.914806 48.310898 10.999999 47.395195 11 46.266003L 11 14.578C 11 13.44913 11.91513 12.534 13.044 12.534L 16.809999 12.534C 23.721334 12.530374 30.176619 15.9832 34.010002 21.734001ZM 34 55.466L 35.104 54.362C 38.979107 50.487827 44.234432 48.3116 49.714001 48.312L 54.956001 48.312C 56.085194 48.310898 57 47.395195 57 46.266003L 57 14.578C 57 13.44913 56.084869 12.534 54.955997 12.534L 51.200001 12.534C 44.28867 12.530374 37.833385 15.9832 34 21.734001ZM 17.084 22.218C 20.945673 21.906319 24.790562 22.994614 27.916 25.284M 17.084 30.4C 20.945763 30.087414 24.79096 31.175798 27.916 33.466003M 17.084 38.571999C 20.945902 38.26107 24.790752 39.350067 27.916 41.639999M 48.056 26.334L 43.897999 26.334C 42.584515 26.336596 41.457073 27.269634 41.208862 28.559458C 40.960651 29.849279 41.661285 31.134113 42.880001 31.624001L 47.098 33.309998C 48.316715 33.799889 49.017349 35.084721 48.769138 36.374542C 48.520927 37.664368 47.393486 38.597404 46.080002 38.599998L 41.922001 38.599998M 44.987999 26.334L 44.987999 24.799999M 44.987999 40.134003L 44.987999 38.599998"></path></g></g></g><g id="g-root-tx_calcular_18mk5wr34q51e-stroke" data-item-order="0" transform="translate(352, 349.999755859375)"></g><g id="g-root-tx_calculan_qu178r34q58h-stroke" data-item-order="0" transform="translate(352.23828125, 385.820068359375)"></g><g id="g-root-ic_coin_18foxyj34rk0d-stroke" data-item-order="0" transform="translate(292, 457.999755859375)"><g id="ic_coin_18foxyj34rk0d-stroke" fill="none" stroke-linecap="round" stroke-linejoin="round" stroke-miterlimit="4" stroke="#484848" stroke-width="2" stroke-opacity="1"><g><path d="M 30 19L 38 19M 44 57C 44 51.477154 39.52285 47 34 47C 28.477154 47 24 51.477154 24 57M 28 34.440002C 31.356537 37.920319 36.515137 38.963181 40.959999 37.060001M 27 38C 27.000002 41.865997 30.134008 45 34 45C 37.865993 45 41 41.865997 41 38C 41 34.13401 37.865993 31.000002 34 31.000002C 30.134008 31.000002 27.000002 34.13401 27.000002 38M 22 13L 16.68 13C 15.382677 12.983065 14.259533 13.897864 14.013603 15.171777C 13.767674 16.44569 14.469597 17.712818 15.68 18.18L 20.32 19.82C 21.530403 20.287182 22.232327 21.55431 21.986397 22.828224C 21.740467 24.102135 20.617323 25.016935 19.32 25L 14 25M 18 27L 18 25M 18 13L 18 11M 54 13L 48.68 13C 47.382675 12.983065 46.259533 13.897864 46.013603 15.171777C 45.767673 16.44569 46.469597 17.712818 47.68 18.18L 52.32 19.82C 53.530403 20.287182 54.232327 21.55431 53.986397 22.828224C 53.740467 24.102135 52.617321 25.016935 51.32 25L 46 25M 50 27L 50 25M 50 13L 50 11"></path></g></g></g><g id="g-root-ic_grap_dl2l7v34ooi4-stroke" data-item-order="0" transform="translate(123, 477.999755859375)"><g id="ic_grap_dl2l7v34ooi4-stroke" fill="none" stroke-linecap="round" stroke-linejoin="round" stroke-miterlimit="4" stroke="#ffffff" stroke-width="2" stroke-opacity="1"><g><path d="M 15.416667 23.500002L 15.416667 26.875002M 17.583334 36.437504L 18.125 30.812502L 20.291668 30.812502L 20.291668 26.312502C 20.291668 23.51656 18.109055 21.250002 15.416667 21.250002C 12.724278 21.250002 10.541667 23.51656 10.541667 26.312502L 10.541667 30.812502L 12.708333 30.812502L 13.25 36.437504M 12.6325 14.5C 13.651072 15.579118 15.044899 16.187284 16.5 16.1875C 17.245085 16.190136 17.982679 16.033113 18.666668 15.726251M 12.188334 16.1875C 12.188148 18.0516 13.638427 19.562851 15.4275 19.562851C 17.216574 19.562851 18.666851 18.0516 18.666668 16.1875C 18.666851 14.323403 17.216574 12.812151 15.4275 12.812151C 13.638427 12.812151 12.188148 14.323403 12.188334 16.1875M 18.666668 10.5625L 34.375 10.5625C 34.973309 10.5625 35.458336 11.066179 35.458336 11.6875L 35.458336 22.937502C 35.458336 23.558823 34.973309 24.062502 34.375 24.062502L 23 24.062502M 25.708334 24.062502L 25.708334 30.812502M 23.541668 30.812502L 27.875 30.812502M 21.916668 18.4375L 25.166668 15.062501L 26.791668 16.75L 30.583334 12.8125M 27.875 12.8125L 30.583334 12.8125L 30.583334 15.625001M 28.958334 19.562502L 31.125 19.562502M 28.958334 21.812502L 32.208336 21.812502"></path></g></g></g><g id="g-root-tx_asignarp_m7yy9734rhtw-stroke" data-item-order="0" transform="translate(352, 469.999755859375)"></g><g id="g-root-tx_asignand_1uuwmp734q423-stroke" data-item-order="0" transform="translate(352.23828125, 505.820068359375)"></g></g></g></svg>