<?xml version="1.0" encoding="utf-8" standalone="yes"?>
<!DOCTYPE svg PUBLIC "-//W3C//DTD SVG 1.1//EN" "http://www.w3.org/Graphics/SVG/1.1/DTD/svg11.dtd">
<svg style="fill:none;stroke:none;fill-rule:evenodd;clip-rule:evenodd;stroke-linecap:round;stroke-linejoin:round;stroke-miterlimit:1.5;" version="1.1" xmlns="http://www.w3.org/2000/svg" xmlns:xlink="http://www.w3.org/1999/xlink" width="600" height="756" viewBox="0 0 600 756"><style class="text-font-style fontImports" data-font-family="Roboto">@import url(https://fonts.googleapis.com/css2?family=Roboto:wght@400;700&amp;amp;display=block);</style><g id="items" style="isolation: isolate"><g id="blend" style="mix-blend-mode: normal"><g id="g-root-cp_3_g-3_4o69zg307ie-fill" data-item-order="-364310" transform="translate(248, 110)"><g id="cp_3_g-3_4o69zg307ie-fill-merged" stroke="none" fill="#92bd39" fill-opacity="1"><g><path d="M10 10C48.07 10 85.065 22.631 115.186 45.912C144.964 68.928 166.361 101.068 176.115 137.393C181.695 157.215 193.574 174.69 209.978 187.139C226.115 199.385 245.76 206.106 266 206.32 V189.236C266 188.181 267.423 187.845 267.894 188.789L301.776 244.553C301.917 244.834 301.917 245.166 301.776 245.447L267.894 301.211C267.423 302.155 266 301.819 266 300.764 V283.997C228.803 283.78 192.667 271.51 163.022 249.012C133.111 226.313 111.449 194.449 101.345 158.285C96.083 138.081 84.204 120.136 67.685 107.368C51.166 94.601 30.878 87.674 10 87.674 V10"></path></g></g></g><g id="g-root-cp_2_g-2_1qegaoc305qf-fill" data-item-order="-364306" transform="translate(76, 110)"><g id="cp_2_g-2_1qegaoc305qf-fill-merged" stroke="none" fill="#4e88e7" fill-opacity="1"><g><path d="M60.378 60.378C28.121 92.634 10 136.383 10 182C10 202.697 13.736 223.255 21.059 242.678C29.684 265.556 43.089 286.333 60.378 303.622L115.247 248.752C105.758 239.263 98.401 227.86 93.667 215.303C89.648 204.643 87.598 193.359 87.598 182 H87.674C87.674 156.983 97.612 132.991 115.301 115.301C132.991 97.612 156.983 87.674 182 87.674 V10C136.383 10 92.634 28.121 60.378 60.378"></path></g></g></g><g id="g-root-cp_1_g-1_18n6a6k3083k-fill" data-item-order="-364302" transform="translate(126.37799072265625, 258.2850341796875)"><g id="cp_1_g-1_18n6a6k3083k-fill-merged" stroke="none" fill="#3cc583" fill-opacity="1"><g><path d="M64.924 100.414L10 155.337C25.972 171.308 44.933 183.978 65.801 192.622C86.209 201.075 109.484 205.517 131.626 205.708C131.863 205.715 132.1 205.714 132.337 205.713C132.599 205.714 132.861 205.715 133.122 205.715C158.895 205.483 184.295 199.469 207.441 188.102C231.035 176.516 251.659 159.675 267.73 138.875C276.13 128.003 283.17 116.2 288.726 103.731C287.353 102.751 285.992 101.75 284.644 100.727C254.733 78.028 233.072 46.164 222.967 10C226.605 23.948 226.926 38.456 224.043 52.579C221.16 66.703 215.078 79.979 206.265 91.385C197.451 102.793 186.141 112.028 173.202 118.382C160.48 124.629 146.518 127.928 132.352 128.038C120.167 127.939 106.733 125.503 95.525 120.861C84.081 116.121 73.683 109.173 64.924 100.414"></path></g></g></g><g id="g-root-tx_ciclodei_8x4k5o31mgx-fill" data-item-order="0" transform="translate(128, 38)"><g id="tx_ciclodei_8x4k5o31mgx-fill-merged" stroke="none" fill="#484848" fill-opacity="1"><g><text style="font: bold 25px Roboto, sans-serif; white-space: pre;" font-weight="bold" font-size="25px" font-family="Roboto, sans-serif"><tspan x="14.2" y="42.5" dominant-baseline="ideographic">Ciclo de Innovación y Apoyo</tspan></text></g></g></g><g id="g-root-ic_idea_1hhkff02ysxw-fill" data-item-order="0" transform="translate(96, 230)"></g><g id="g-root-ic_2_dl28ek32znn-fill" data-item-order="0" transform="translate(355, 230)"></g><g id="g-root-ic_root_142d5os2hyip-fill" data-item-order="0" transform="translate(256, 386)"></g><g id="g-root-tx_1_6hclo31moc-fill" data-item-order="0" transform="translate(98, 494)"><g id="tx_1_6hclo31moc-fill-merged" stroke="none" fill="#3cc583" fill-opacity="1"><g><text style="font: bold 25px Roboto, sans-serif; white-space: pre;" font-weight="bold" font-size="25px" font-family="Roboto, sans-serif"><tspan x="14.82" y="42.5" dominant-baseline="ideographic">1</tspan></text></g></g></g><g id="g-root-tx_2_hu0iks330gf-fill" data-item-order="0" transform="translate(266, 494)"><g id="tx_2_hu0iks330gf-fill-merged" stroke="none" fill="#4e88e7" fill-opacity="1"><g><text style="font: bold 25px Roboto, sans-serif; white-space: pre;" font-weight="bold" font-size="25px" font-family="Roboto, sans-serif"><tspan x="14.82" y="42.5" dominant-baseline="ideographic">2</tspan></text></g></g></g><g id="g-root-tx_3_8crv032z2i-fill" data-item-order="0" transform="translate(434, 494)"><g id="tx_3_8crv032z2i-fill-merged" stroke="none" fill="#92bd39" fill-opacity="1"><g><text style="font: bold 25px Roboto, sans-serif; white-space: pre;" font-weight="bold" font-size="25px" font-family="Roboto, sans-serif"><tspan x="14.82" y="42.5" dominant-baseline="ideographic">3</tspan></text></g></g></g><g id="g-root-tx_cultivar_1cxzzm431lai-fill" data-item-order="0" transform="translate(50, 554)"><g id="tx_cultivar_1cxzzm431lai-fill-merged" stroke="none" fill="#3cc583" fill-opacity="1"><g><text style="font: bold 20px Roboto, sans-serif; white-space: pre;" font-weight="bold" font-size="20px" font-family="Roboto, sans-serif"><tspan x="12" y="33.5" dominant-baseline="ideographic">Cultivar la </tspan><tspan x="12" y="57.5" dominant-baseline="ideographic">Innovación</tspan></text></g></g></g><g id="g-root-tx_ensearpl_1qdttl831ma5-fill" data-item-order="0" transform="translate(218, 554)"><g id="tx_ensearpl_1qdttl831ma5-fill-merged" stroke="none" fill="#4e88e7" fill-opacity="1"><g><text style="font: bold 20px Roboto, sans-serif; white-space: pre;" font-weight="bold" font-size="20px" font-family="Roboto, sans-serif"><tspan x="12" y="33.5" dominant-baseline="ideographic">Enseñar </tspan><tspan x="12" y="57.5" dominant-baseline="ideographic">Planificación </tspan><tspan x="12" y="81.5" dominant-baseline="ideographic">Empresarial</tspan></text></g></g></g><g id="g-root-tx_apoyarin_4lxcc331ts-fill" data-item-order="0" transform="translate(386, 554)"><g id="tx_apoyarin_4lxcc331ts-fill-merged" stroke="none" fill="#92bd39" fill-opacity="1"><g><text style="font: bold 20px Roboto, sans-serif; white-space: pre;" font-weight="bold" font-size="20px" font-family="Roboto, sans-serif"><tspan x="12" y="33.5" dominant-baseline="ideographic">Apoyar </tspan><tspan x="12" y="57.5" dominant-baseline="ideographic">Iniciativas </tspan><tspan x="12" y="81.5" dominant-baseline="ideographic">Impactantes</tspan></text></g></g></g><g id="g-root-tx_fomentar_1hf2fws31mob-fill" data-item-order="0" transform="translate(50, 614)"><g id="tx_fomentar_1hf2fws31mob-fill-merged" stroke="none" fill="#484848" fill-opacity="1"><g><text style="font: 15px Roboto, sans-serif; white-space: pre;" font-size="15px" font-family="Roboto, sans-serif"><tspan x="12" y="30.5" dominant-baseline="ideographic">Fomentar ideas </tspan><tspan x="12" y="48.5" dominant-baseline="ideographic">creativas y </tspan><tspan x="12" y="66.5" dominant-baseline="ideographic">soluciones</tspan></text></g></g></g><g id="g-root-tx_proporci_qns3kc330ni-fill" data-item-order="0" transform="translate(218, 638)"><g id="tx_proporci_qns3kc330ni-fill-merged" stroke="none" fill="#484848" fill-opacity="1"><g><text style="font: 15px Roboto, sans-serif; white-space: pre;" font-size="15px" font-family="Roboto, sans-serif"><tspan x="12" y="30.5" dominant-baseline="ideographic">Proporcionar </tspan><tspan x="12" y="48.5" dominant-baseline="ideographic">orientación paso a </tspan><tspan x="12" y="66.5" dominant-baseline="ideographic">paso</tspan></text></g></g></g><g id="g-root-tx_ofrecerd_1qbyebw331fl-fill" data-item-order="0" transform="translate(386, 638)"><g id="tx_ofrecerd_1qbyebw331fl-fill-merged" stroke="none" fill="#484848" fill-opacity="1"><g><text style="font: 15px Roboto, sans-serif; white-space: pre;" font-size="15px" font-family="Roboto, sans-serif"><tspan x="12" y="27.5" dominant-baseline="ideographic">Ofrecer descuentos </tspan><tspan x="12" y="45.5" dominant-baseline="ideographic">y recursos</tspan></text></g></g></g><g id="g-root-cp_3_g-3_4o69zg307ie-stroke" data-item-order="-364310" transform="translate(248, 110)"><g id="cp_3_g-3_4o69zg307ie-stroke" fill="none" stroke-linecap="round" stroke-linejoin="round" stroke-miterlimit="4" stroke="#ffffff" stroke-width="2" stroke-opacity="1"><g><path d="M 10 10C 48.0703 10 85.0648 22.6306 115.1863 45.9124C 144.9641 68.9285 166.3611 101.0684 176.1152 137.3935L 176.1533 137.3828C 181.6947 157.2155 193.5739 174.69 209.9775 187.1385C 226.1154 199.3855 245.76 206.106 266 206.3204L 266 189.2361C 266 188.1808 267.4225 187.845 267.8944 188.7888L 301.7764 244.5528C 301.9172 244.8343 301.9172 245.1657 301.7764 245.4472L 267.8944 301.2112C 267.4225 302.155 266 301.8192 266 300.7639L 266 283.9966C 228.8028 283.7805 192.6675 271.5103 163.0218 249.0125C 133.1106 226.313 111.4493 194.449 101.3447 158.2849C 96.0831 138.0808 84.2039 120.1364 67.685 107.3685C 51.1662 94.6005 30.8781 87.6738 10 87.6738L 10 10Z"></path></g></g></g><g id="g-root-cp_2_g-2_1qegaoc305qf-stroke" data-item-order="-364306" transform="translate(76, 110)"><g id="cp_2_g-2_1qegaoc305qf-stroke" fill="none" stroke-linecap="round" stroke-linejoin="round" stroke-miterlimit="4" stroke="#ffffff" stroke-width="2" stroke-opacity="1"><g><path d="M 60.3776 60.3776C 28.1214 92.6339 10 136.3828 10 182C 10 202.6967 13.7359 223.2553 21.0587 242.678C 29.6843 265.5564 43.0886 286.3328 60.3776 303.6219L 115.2474 248.7521C 105.7583 239.263 98.4013 227.8598 93.6671 215.303C 89.648 204.6429 87.5976 193.3594 87.5975 182L 87.6738 182C 87.6738 156.9831 97.6117 132.9909 115.3013 115.3013C 132.9909 97.6117 156.9831 87.6738 182 87.6738L 182 10C 136.3828 10 92.6339 28.1214 60.3776 60.3776Z"></path></g></g></g><g id="g-root-cp_1_g-1_18n6a6k3083k-stroke" data-item-order="-364302" transform="translate(126.37799072265625, 258.2850341796875)"><g id="cp_1_g-1_18n6a6k3083k-stroke" fill="none" stroke-linecap="round" stroke-linejoin="round" stroke-miterlimit="4" stroke="#ffffff" stroke-width="2" stroke-opacity="1"><g><path d="M 64.9237 100.4136L 10 155.3367C 25.9717 171.3084 44.9328 183.9784 65.8008 192.6222C 86.2085 201.0753 109.4836 205.5166 131.6259 205.7084L 131.6259 205.7146C 131.863 205.7146 132.1 205.7141 132.337 205.7131C 132.599 205.7143 132.8608 205.7149 133.1224 205.7149L 133.1224 205.7081C 158.8951 205.4833 184.2948 199.4691 207.4407 188.1023C 231.0346 176.5156 251.6589 159.6755 267.7298 138.8753C 276.1302 128.0029 283.1695 116.1997 288.7263 103.7312C 287.3526 102.7511 285.9917 101.7496 284.6442 100.727C 254.7329 78.0276 233.0716 46.1641 222.9671 10C 226.6049 23.9485 226.9258 38.4555 224.0429 52.5794C 221.1599 66.7033 215.0782 79.9785 206.2648 91.3855C 197.4514 102.7925 186.1408 112.0278 173.2018 118.3821C 160.4804 124.6294 146.5177 127.9284 132.3518 128.038C 120.1667 127.9391 106.7327 125.5032 95.5253 120.8609C 84.0811 116.1206 73.6826 109.1726 64.9237 100.4136Z"></path></g></g></g><g id="g-root-tx_ciclodei_8x4k5o31mgx-stroke" data-item-order="0" transform="translate(128, 38)"></g><g id="g-root-ic_idea_1hhkff02ysxw-stroke" data-item-order="0" transform="translate(96, 230)"><g id="ic_idea_1hhkff02ysxw-stroke" fill="none" stroke-linecap="round" stroke-linejoin="round" stroke-miterlimit="4" stroke="#ffffff" stroke-width="2" stroke-opacity="1"><g><path d="M 56 30L 56 48.042C 56.000141 49.134193 55.124054 50.024525 54.032001 50.042C 43.166 50.360001 34 53.354 34 57C 34 53.352001 24.832001 50.358002 13.968 50.029999C 12.875947 50.012524 11.99986 49.122192 12 48.029999L 12 19.035999C 11.999923 18.499622 12.215297 17.985695 12.597755 17.609629C 12.980214 17.233562 13.497701 17.026882 14.034 17.035999C 24.869999 17.372 34 20.362 34 24M 17 26C 21.45879 26.236013 25.849482 27.195887 30.000002 28.842001M 17 32.809998C 21.458551 33.044838 25.849218 34.003357 30 35.647999M 17 39.618C 21.458685 39.851852 25.84951 40.810402 30 42.456001M 34 24.001999L 34 56.751999M 52 23C 52.011627 19.945835 49.727135 17.370302 46.693409 17.017359C 43.659679 16.664415 40.844933 18.646702 40.155094 21.621965C 39.465256 24.597229 41.120491 27.615915 44 28.634001L 44 31L 48 31L 48 28.636C 50.393101 27.795002 51.995964 25.536572 52.000004 23ZM 44 35.001999L 48 35.001999M 45 39.001999L 47 39.001999M 46 13.002L 46 11.002M 53.071999 15.932L 54.486 14.518M 38.93 15.932L 37.514 14.518"></path></g></g></g><g id="g-root-ic_2_dl28ek32znn-stroke" data-item-order="0" transform="translate(355, 230)"><g id="ic_2_dl28ek32znn-stroke" fill="none" stroke-linecap="round" stroke-linejoin="round" stroke-miterlimit="4" stroke="#ffffff" stroke-width="2" stroke-opacity="1"><g><path d="M 10 10M 56.042198 17.623699L 51.701599 13.97614C 50.250401 12.80328 48.442799 12.16 46.576801 12.15234L 37.1478 12.15234C 36.422199 12.15234 35.726402 12.44056 35.213402 12.9536C 34.700401 13.46664 34.412201 14.162479 34.412201 14.88802L 34.412201 14.88802C 34.412201 15.613581 34.700401 16.309401 35.213402 16.822441C 35.726402 17.33548 36.422199 17.623699 37.1478 17.623699L 44.205799 17.623699M 10 10M 11.956779 50.376202L 16.2974 54.0238C 17.74868 55.1968 19.556301 55.84 21.422241 55.847599L 30.8512 55.847599C 31.576799 55.847599 32.272598 55.559399 32.785599 55.046398C 33.298599 54.533401 33.586998 53.837601 33.586998 53.112L 33.586998 53.112C 33.586998 52.386398 33.298599 51.690601 32.785599 51.177601C 32.272598 50.6646 31.576799 50.376202 30.8512 50.376202L 23.793159 50.376202M 10 10M 56.042999 25.831581L 50.571602 25.831581C 48.947399 25.8351 47.359402 25.35236 46.012199 24.445499L 42.820599 22.366379C 41.5546 21.63118 41.177601 19.917381 42.018002 18.7188C 42.7262 17.66564 44.148399 17.292179 45.2826 17.86162L 49.3862 20.32374M 10 10M 11.956054 42.1684L 17.42742 42.1684C 19.05154 42.164799 20.639519 42.647598 21.9869 43.5546L 25.17852 45.633598C 26.44438 46.368801 26.821421 48.0826 25.98098 49.2812C 25.272881 50.3344 23.850559 50.707802 22.7164 50.138401L 18.612881 47.676201M 10 10M 33.5928 43.565201L 25.74024 36.4524C 21.472519 32.184601 27.746059 23.990601 33.5928 30.619801C 39.439598 23.990601 45.684601 32.212997 41.4454 36.4524L 33.5928 43.565201Z"></path></g></g></g><g id="g-root-ic_root_142d5os2hyip-stroke" data-item-order="0" transform="translate(256, 386)"><g id="ic_root_142d5os2hyip-stroke" fill="none" stroke-linecap="round" stroke-linejoin="round" stroke-miterlimit="4" stroke="#ffffff" stroke-width="2" stroke-opacity="1"><g><path d="M 11 34.031998L 57 34.031998M 54.368 13.032C 54.368 13.032 49.125999 26.444 41.200001 23.348C 39.201344 22.609142 37.757355 20.848717 37.423691 18.744146C 37.090031 16.639576 37.91869 14.518841 39.590801 13.19801C 41.262909 11.877179 43.517887 11.562094 45.488003 12.374001C 48.366005 13.230644 51.395168 13.455102 54.368 13.032ZM 35 23.032C 37.454308 19.563122 41.403919 17.458542 45.652 17.355999M 15.632 13.032C 15.632 13.032 20.872 26.444 28.799999 23.348C 30.790848 22.603203 32.226196 20.843826 32.556091 18.743977C 32.885986 16.644127 32.059277 14.529372 30.392721 13.209983C 28.726164 11.890594 26.478148 11.571133 24.510002 12.374001C 21.632627 13.230354 18.604179 13.45481 15.632 13.032ZM 24.348 17.355999C 28.596083 17.458542 32.545696 19.563122 35 23.032001L 35 56.032001M 35 48.032001L 31 48.032001C 29.89543 48.032001 29 48.927429 29 50.032001L 29 54.032001M 43 54.032001L 43 45.032001C 43 43.375145 41.656853 42.032001 40 42.032001L 27 42.032001C 24.793596 42.038589 23.00659 43.825596 23 46.032001L 23 53.032001M 43 48.032001L 45 48.032001C 46.104568 48.032001 47 48.927429 47 50.032001L 47 52.032001M 23 47.032001L 19 49.032001"></path></g></g></g><g id="g-root-tx_1_6hclo31moc-stroke" data-item-order="0" transform="translate(98, 494)"></g><g id="g-root-tx_2_hu0iks330gf-stroke" data-item-order="0" transform="translate(266, 494)"></g><g id="g-root-tx_3_8crv032z2i-stroke" data-item-order="0" transform="translate(434, 494)"></g><g id="g-root-tx_cultivar_1cxzzm431lai-stroke" data-item-order="0" transform="translate(50, 554)"></g><g id="g-root-tx_ensearpl_1qdttl831ma5-stroke" data-item-order="0" transform="translate(218, 554)"></g><g id="g-root-tx_apoyarin_4lxcc331ts-stroke" data-item-order="0" transform="translate(386, 554)"></g><g id="g-root-tx_fomentar_1hf2fws31mob-stroke" data-item-order="0" transform="translate(50, 614)"></g><g id="g-root-tx_proporci_qns3kc330ni-stroke" data-item-order="0" transform="translate(218, 638)"></g><g id="g-root-tx_ofrecerd_1qbyebw331fl-stroke" data-item-order="0" transform="translate(386, 638)"></g></g></g></svg>